<?xml version="1.0" encoding="UTF-8" standalone="no"?>
<svg
   id="f1ce7683-91e7-4366-ba02-208d870f4901"
   data-name="Layer 1"
   viewBox="0 0 1095690.2 1095690.2"
   version="1.1"
   width="109"
   height="109"
   xmlns="http://www.w3.org/2000/svg"
   svg="http://www.w3.org/2000/svg">
  <namedview
     id="namedview25"
     pagecolor="#ffffff"
     bordercolor="#000000"
     borderopacity="1"
     showpageshadow="2"
     pageopacity="0.0"
     pagecheckerboard="0"
     deskcolor="#d1d1d1"
     showgrid="false"
     zoom="0.35027975"
     cx="448.21318"
     cy="599.52081"
     window-width="1366"
     window-height="715"
     window-x="-8"
     window-y="22"
     window-maximized="1"
     current-layer="f1ce7683-91e7-4366-ba02-208d870f4901" />
  <defs
     id="defs4">
    <style
       id="style2">.a9b37826-4250-4f82-89c2-e126adb21ba1,.aa991ea5-8827-443c-b8f6-a8aae6fa7f43,.b4fa653c-8d23-47ff-aee2-f2c8ed013e5e,.b6b8ed20-d390-406b-99f1-91df860b371d{fill:#fff;}.b4fa653c-8d23-47ff-aee2-f2c8ed013e5e{font-size:45.24px;}.a9b37826-4250-4f82-89c2-e126adb21ba1,.b4fa653c-8d23-47ff-aee2-f2c8ed013e5e,.b6b8ed20-d390-406b-99f1-91df860b371d{font-family:Poppins-Medium, Poppins;font-weight:500;}.b6b8ed20-d390-406b-99f1-91df860b371d{font-size:72.1px;}.a9b37826-4250-4f82-89c2-e126adb21ba1{font-size:37.26px;}.ea67a9d9-05f4-4cbc-a483-25afbfadae61{fill:none;stroke:#fff;stroke-miterlimit:10;}</style>
  </defs>
  <circle
     class="aa991ea5-8827-443c-b8f6-a8aae6fa7f43"
     cx="-34833"
     cy="-34741.25"
     r="43.91"
     id="circle6"
     style="fill:none;fill-opacity:1;stroke:#ffffff;stroke-width:8.5;stroke-miterlimit:5.47;stroke-dasharray:none;stroke-opacity:1" />
  <path
     class="aa991ea5-8827-443c-b8f6-a8aae6fa7f43"
     d="m -34618.509,-34950.509 c -19.75,-1.31 -39.45,-3.4 -59.18,-5 -22.27,-1.86 -44.54,-3.7 -66.82,-5.32 a 11.62,11.62 0 0 0 -12.06,10.1 c -0.76,6 2.88,11.11 9.18,12.57 a 53.08,53.08 0 0 0 7.5,1.24 q 61,5 121.92,9.84 c 4.41,0.34 5.62,1.61 4.44,5.94 q -11.08,40.73 -21.82,81.55 c -1.85,7 -5.65,11.46 -13.18,11.9 -22.53,1.34 -45.06,2.79 -67.61,3.88 -45.12,2.18 -90.26,4.16 -135.39,6.22 -15.19,0.7 -30.38,1.56 -45.59,2 -7.93,0.25 -11.38,-2.57 -13.28,-10.1 q -15.25,-60.19 -30.4,-120.47 c -1.71,-6.81 -0.26,-8.33 6.63,-7.72 20.42,1.79 40.83,3.59 61.26,5.28 6.44,0.53 11.69,-3.54 12.52,-9.32 1,-7.23 -2.35,-12.21 -9.52,-13.37 -5.44,-0.88 -10.94,-1.52 -16.44,-1.87 -19.49,-1.26 -39,-2.25 -58.48,-3.67 -1.61,-0.12 -3.88,-2.52 -4.4,-4.29 -2.46,-8.34 -4.45,-16.82 -6.55,-25.27 -2.1,-8.45 -5.43,-11.19 -13.92,-11.31 -8.49,-0.12 -17.07,0 -25.6,0 v 0.62 c -8.53,0 -17.07,-0.14 -25.6,0.09 a 13.53,13.53 0 0 0 -7.05,2 c -4.31,3 -6.05,7.45 -4.34,12.68 1.78,5.45 5.78,8.16 11.47,8.17 12.91,0 25.83,0 38.75,-0.21 2,0 3.38,0.2 4.43,1 a 6.34,6.34 0 0 1 2.14,4 c 0.77,4.05 10.24,39.68 23.55,89.38 1.6,1.48 3.23,3.1 4.88,4.89 0.85,0.92 1.65,1.83 2.42,2.73 l 5.31,5.8 a 51.57,51.57 0 0 1 4.45,6.66 52.3,52.3 0 0 1 5.78,16 63.82,63.82 0 0 1 1,12.06 c 0,0.69 -0.11,3 -0.31,7.65 -0.18,4.1 -0.27,6.17 -0.41,6.91 -0.6,3.21 -1.45,4.34 -1.86,8.14 -0.15,1.43 -0.06,1.57 -0.18,3 a 34,34 0 0 1 -1.75,8.22 q 0.57,1.85 1.2,3.66 c 5.63,16.2 20.78,23.22 41.68,22.07 51.09,-2.79 102.2,-5.18 153.31,-7.72 29.92,-1.49 59.87,-2.62 89.76,-4.61 18.25,-1.21 29.39,-11.53 34,-29.15 6.83,-26.38 13.44,-52.82 20.79,-79.06 6.23,-22.54 -3.29,-36.24 -26.63,-37.79 z"
     id="path8"
     style="fill:none;fill-opacity:1;stroke:#ffffff;stroke-width:8.5;stroke-miterlimit:5.47;stroke-dasharray:none;stroke-opacity:1" />
  <circle
     class="aa991ea5-8827-443c-b8f6-a8aae6fa7f43"
     cx="-34707.25"
     cy="-34745.238"
     r="43.91"
     id="circle10"
     style="fill:none;fill-opacity:1;stroke:#ffffff;stroke-width:8.5;stroke-miterlimit:5.47;stroke-dasharray:none;stroke-opacity:1" />
  <text
     class="b4fa653c-8d23-47ff-aee2-f2c8ed013e5e"
     id="text12"
     style="fill:none;fill-opacity:1;stroke:#ffffff;stroke-width:2.52762;stroke-miterlimit:5.47;stroke-dasharray:none;stroke-opacity:1"
     x="-34595.367"
     y="-35003.301">©</text>
  <path
     class="aa991ea5-8827-443c-b8f6-a8aae6fa7f43"
     d="m -35000.169,-34707.039 c -1.42,-2.23 -2.37,-3.61 -3.22,-5.06 -13.05,-22.14 -26.18,-44.22 -39.08,-66.45 a 142,142 0 0 1 -19.58,-65.74 c -1.6,-37.08 22.76,-61.25 47.82,-67.24 25.73,-6.15 46.26,3.1 62.44,23 15.13,18.59 17.35,39.87 11.6,62.43 a 198.24,198.24 0 0 1 -19.4,48.55 c -12.08,21.44 -24.46,42.72 -36.72,64.07 -1.07,1.83 -2.2,3.65 -3.86,6.44 z m 52.09,-141 a 51.82,51.82 0 0 0 -50.8,-52.22 c -26.8,-0.66 -52.33,21.36 -52.52,51.19 -0.18,29.34 22.67,52.93 51.45,53.06 28.49,0.13 51.68,-23.13 51.87,-51.99 z"
     id="path14"
     style="fill:none;fill-opacity:1;stroke:#ffffff;stroke-width:8.5;stroke-miterlimit:5.47;stroke-dasharray:none;stroke-opacity:1" />
  <path
     class="aa991ea5-8827-443c-b8f6-a8aae6fa7f43"
     d="m -34832.269,-34889.569 c 0.66,1.2 1.16,2.51 1.94,3.65 a 41.53,41.53 0 0 1 7.53,20.89 c 0.65,7.26 0.13,14.3 -4.29,20.29 a 40.6,40.6 0 0 1 -8.72,8.17 36,36 0 0 1 -23,7.13 19,19 0 0 1 -5.9,-1.08 c -6.27,-2.17 -12.61,-4.46 -17.81,-8.85 -4.45,-3.71 -6.9,-8.78 -8.2,-14.24 a 45.88,45.88 0 0 1 -1.07,-10.59 c 0.06,-8.8 2.32,-17 8.38,-23.64 a 28.68,28.68 0 0 1 16.31,-9 c 5.58,-1.07 11.3,-1.38 17,-1.91 a 37.28,37.28 0 0 1 4.2,0.32 5,5 0 0 0 1.54,-0.34 c -0.3,-0.44 -0.54,-0.93 -0.84,-1.3 -1.76,-2.15 -3.52,-4.25 -5.18,-6.4 a 2.57,2.57 0 0 1 -0.47,-2 c 0.45,-2.36 5.08,-6.12 7.47,-6.23 4.28,-0.18 6,-1.43 6.94,-5.48 1.27,-5.46 2.09,-10.84 0,-16.43 -1.7,-4.43 0.94,-5.27 4.37,-5.81 a 23.3,23.3 0 0 1 4.44,-0.25 c 3.51,0.07 4.39,-2.7 5.62,-5.15 1,-2.05 -0.58,-3.14 -1.58,-4.44 -6.75,-9.23 -13.72,-18.33 -20.2,-27.74 -5.83,-8.54 -10.95,-17.51 -14.23,-27.39 -1.4,-4.23 -1.88,-8.72 -3.45,-12.88 -1.9,-5.26 -4.78,-10 -10.76,-11.84 -4.74,-1.4 -8.37,0.93 -11.7,3.69 -2.26,1.88 -4,4.35 -6.07,6.44 -1.07,1.05 -1.94,0.37 -2.65,-0.66 -3.15,-4.6 -6.3,-9.19 -9.51,-13.73 -7,-9.89 -14,-19.72 -21,-29.6 -1.25,-1.78 -2.17,-3.75 -3.36,-5.53 -1.18,-1.62 -0.46,-2.93 0.78,-3.82 4.58,-3.43 9.1,-7.19 14,-10 a 56.93,56.93 0 0 1 20.18,-7.17 c 13.5,-2 24.94,2.37 35.53,10.2 9.55,7.05 16.85,16.14 22.64,26.3 2.3,4.13 3.18,9.11 4.39,13.79 2.12,7.92 3.87,16 6.1,23.84 2.36,8.14 5.11,16.15 7.8,24.16 a 39.52,39.52 0 0 0 3.08,6.77 c 1.63,2.94 2.2,5.87 0.9,9.15 -1.76,4.48 -3.35,8.95 -5,13.47 -0.59,1.81 -1.06,3.61 -1.54,5.47 a 4.61,4.61 0 0 0 0,1.23 10.32,10.32 0 0 0 0.68,-0.87 c 3.57,-5 5.72,-10.66 7.59,-16.37 2,-6.32 3.73,-12.74 5.18,-19.15 1.12,-5 1.28,-10.14 2.35,-15 a 135.9,135.9 0 0 1 11.62,-33.53 95.93,95.93 0 0 1 17.45,-24 87.9,87.9 0 0 1 27.09,-18.44 c 7.65,-3.4 15.63,-5.53 23.67,-7.61 1.59,-0.46 3.32,-0.53 5,-0.83 2.66,-0.5 2,2 2.25,3 a 150.34,150.34 0 0 1 2.52,33.47 101.68,101.68 0 0 1 -11.26,44.48 113.16,113.16 0 0 1 -11.69,17.94 c -8.55,10.84 -19.1,19.26 -30.82,26.29 a 94,94 0 0 0 -18.26,14.85 c -4.43,4.54 -8.74,9.12 -13.1,13.77 -0.38,0.35 -0.46,1 -0.71,1.53 a 17,17 0 0 0 1.73,0.21 c 4.91,0.28 6.62,-4 9.29,-6.76 1.54,-1.57 2.45,-1.11 3.57,0.18 3.28,3.76 6.51,7.57 10,11.21 2.86,3 6.1,5.86 9,8.91 a 2.73,2.73 0 0 0 4,0.32 95.61,95.61 0 0 0 8,-7.09 c 1.39,-1.34 1.84,-1.36 2.2,0.52 0.64,3.26 1.39,6.4 1.81,9.67 0.56,3.87 0.56,7.82 1.18,11.64 0.62,3.82 4.13,5.33 6.57,7.67 0.87,0.8 2.33,1 3.09,1.87 1.82,2.21 3.86,1.67 6.18,1.24 0.88,-0.15 2.69,0.55 2.89,1.21 2.75,8.29 8.79,13.82 15.41,18.82 4.26,3.26 8.63,6.3 13,9.28 a 9.55,9.55 0 0 0 3.22,0.92 16.61,16.61 0 0 0 3.69,0.4 c 2.94,-0.24 3.2,1.75 2.89,3.72 -0.86,5.71 -1.12,6.11 6,8.7 5,1.84 5.43,4.5 2.13,7.93 -2.13,2.26 -4.26,4.64 -6.38,7 -1,1.1 -1.68,2.35 -2.7,3.34 -2.61,2.62 -6.36,2.18 -7.85,-1.38 -0.69,-1.75 -1.22,-3.57 -1.9,-5.32 -0.63,-1.47 -1.32,-2.17 -3.23,-1.25 -4.37,1.92 -6.14,1.1 -6.89,-3.43 -0.61,-3.87 -2.79,-6.56 -5.4,-8.84 -5.91,-5.26 -12,-10.34 -18.31,-15.07 -1.9,-1.42 -4.91,-1.46 -7.38,-2.13 -0.45,-0.09 -0.9,-0.13 -1.29,-0.17 -1.68,-0.26 -3.79,0 -4.78,-1 -0.75,-0.75 0.48,-3.19 -0.08,-4.51 a 91.83,91.83 0 0 0 -4.67,-8.59 c -3.32,-6.09 -9.25,-6.73 -15.24,-7.47 -3.53,-0.46 -7.07,-1.08 -10.55,-1.82 -1.35,-0.28 -2,-1.25 -1.18,-2.73 0.82,-1.48 1.38,-2.79 2.22,-4.11 1.19,-1.94 0.53,-3.08 -1.14,-4.24 a 122.94,122.94 0 0 1 -11.31,-8 c -3.47,-3 -6.47,-6.57 -9.73,-9.82 -0.35,-0.37 -1,-0.73 -1.31,-0.61 -0.31,0.12 -0.85,1 -0.72,1.31 0.44,1.26 1.11,2.51 1.66,3.71 0.55,1.2 1.68,2.6 1.9,3.93 0.55,3.54 -0.7,4.32 -4.18,5 -7,1.36 -13,4.69 -16.66,11.14 a 5.08,5.08 0 0 0 0.35,4.38 c 2.34,3.8 0.22,10.13 -4.09,10.76 -1.61,0.29 -3.37,-0.52 -5,-0.89 -1.3,-0.28 -2.53,-0.56 -3.94,-0.94 a 2.8,2.8 0 0 0 -0.68,-0.2 l 0.52,0.31 m 4.31,-21.23 c 1.9,-2.42 3.92,-4.79 5.64,-7.37 a 115.36,115.36 0 0 0 7.14,-11.34 c 1.59,-3 5.17,-5.29 3.59,-9.51 -0.12,-0.33 0.35,-0.91 0.61,-1.36 4,-6.24 7.81,-12.48 11.83,-18.67 6.15,-9.51 12.54,-18.92 18.52,-28.54 1.46,-2.35 2.83,-2.69 4.94,-1.72 7.9,3.61 17.21,0.14 21.68,-7.24 a 18,18 0 0 0 -3.18,-22.25 c -1.28,-1.11 -1.83,-2.31 -0.89,-3.74 1.09,-1.72 2.64,-3.24 3.4,-5.05 0.91,-2.16 2.52,-2.12 3.93,-1.73 6.21,1.79 11.44,0.5 16.56,-3.51 7.75,-6 8.58,-18.92 1.65,-25.8 -1.39,-1.33 -1.61,-2.43 -0.46,-4.21 5,-7.62 9.91,-15.36 14.76,-23.08 0.62,-1 0.33,-2.64 0.49,-4 a 14.9,14.9 0 0 0 -2.57,2.28 c -5.18,7.69 -10.36,15.32 -15.31,23.17 -1,1.66 -2.08,2 -3.39,1.43 a 17.56,17.56 0 0 0 -9.29,-1.1 16.46,16.46 0 0 0 -13.65,9.87 17.52,17.52 0 0 0 0.73,16.79 c 1.27,2.17 3.75,4.23 3.73,6.35 -0.02,2.12 -2.71,4.19 -3.84,6.41 -1,2 -2.08,2.09 -4.05,1.62 -6.13,-1.51 -11.45,0.44 -16.06,4.49 -6.44,5.68 -7.44,17.19 -1.68,24.18 a 4.22,4.22 0 0 1 0.34,3.83 c -1.18,2.39 -3,4.53 -4.5,6.82 -8.95,14.26 -17.91,28.46 -26.86,42.77 -0.53,0.8 -1.07,2.27 -0.71,2.87 0.9,1.63 0.16,2.56 -0.62,3.82 -3.9,6.29 -7.8,12.64 -11.53,19 -0.78,1.32 -0.87,3 -1.53,4.47 -0.27,0.18 -0.77,0.31 -0.76,0.53 a 2.92,2.92 0 0 0 0.33,1.1 c 0.38,-0.18 0.82,-0.31 1,-0.66 0.16,-0.17 -0.2,-0.66 0,-1 m -48.55,30.28 a 26.33,26.33 0 0 0 -6.9,12.77 c -1.85,8.66 0.64,16.07 6.7,22.15 6.93,7 15.48,9 24.71,5.94 a 23,23 0 0 0 15.12,-14.58 c 1.84,-5 2.46,-9.85 0.86,-14.74 -1,-3.24 -3,-6.21 -4.74,-9.09 -0.84,-1.36 -1.84,-1.31 -2.83,0.35 -3.41,5.94 -7,11.83 -10.64,17.72 -1.56,2.47 -2.51,2.34 -6.19,-0.34 -1.85,-1.37 -0.63,-2.81 0.1,-4 3.59,-5.78 7.4,-11.52 10.94,-17.35 0.68,-1 1.55,-2.8 -0.55,-3.54 a 27,27 0 0 0 -14.59,-1.43 c -4.53,0.87 -8.16,3.25 -12,6.15 m 45.7,-24.82 c -0.35,-0.38 -0.65,-0.81 -1,-1.24 l -0.59,0.64 a 2.75,2.75 0 0 0 1.59,0.6 m 12.78,-51.79 c 0.11,0.05 0.22,0.16 0.34,0.21 0,-0.17 -0.07,-0.33 -0.34,-0.21"
     id="path16"
     style="fill:none;fill-opacity:1;stroke:#ffffff;stroke-width:8.5;stroke-miterlimit:5.47;stroke-dasharray:none;stroke-opacity:1" />
  <text
     class="b6b8ed20-d390-406b-99f1-91df860b371d"
     id="text18"
     style="fill:none;fill-opacity:1;stroke:#ffffff;stroke-width:4.5;stroke-miterlimit:5.47;stroke-dasharray:none;stroke-opacity:1"
     x="-35182.5"
     y="-34577.707">unibenMarketplace</text>
  <text
     class="a9b37826-4250-4f82-89c2-e126adb21ba1"
     id="text20"
     style="fill:none;fill-opacity:1;stroke:#ffffff;stroke-width:1.5;stroke-miterlimit:5.47;stroke-dasharray:none;stroke-opacity:1"
     x="-34477.141"
     y="-34619.758">®</text>
  <circle
     class="ea67a9d9-05f4-4cbc-a483-25afbfadae61"
     cx="-34814.879"
     cy="-34814.879"
     r="500"
     id="circle22"
     style="fill:none;fill-opacity:1;stroke:#ffffff;stroke-width:14.528;stroke-miterlimit:5.47;stroke-dasharray:none;stroke-opacity:1" />
</svg>
