<?xml version="1.0" encoding="UTF-8" standalone="no"?>
<svg
   id="f1ce7683-91e7-4366-ba02-208d870f4901"
   data-name="Layer 1"
   viewBox="0 0 1080 1080"
   version="1.1"
   sodipodi:docname="logoWhite01.svg"
   inkscape:export-filename="logoWhite01.svg"
   inkscape:export-xdpi="96"
   inkscape:export-ydpi="96"
   inkscape:version="1.2 (dc2aedaf03, 2022-05-15)"
   xmlns:inkscape="http://www.inkscape.org/namespaces/inkscape"
   xmlns:sodipodi="http://sodipodi.sourceforge.net/DTD/sodipodi-0.dtd"
   xmlns="http://www.w3.org/2000/svg"
   xmlns:svg="http://www.w3.org/2000/svg">
  <sodipodi:namedview
     id="namedview14"
     pagecolor="#ffffff"
     bordercolor="#000000"
     borderopacity="0.25"
     inkscape:showpageshadow="2"
     inkscape:pageopacity="0.0"
     inkscape:pagecheckerboard="0"
     inkscape:deskcolor="#d1d1d1"
     showgrid="false"
     inkscape:zoom="0.35027975"
     inkscape:cx="254.08263"
     inkscape:cy="348.29304"
     inkscape:window-width="1366"
     inkscape:window-height="715"
     inkscape:window-x="-8"
     inkscape:window-y="22"
     inkscape:window-maximized="1"
     inkscape:current-layer="f1ce7683-91e7-4366-ba02-208d870f4901" />
  <namedview
     id="namedview25"
     pagecolor="#ffffff"
     bordercolor="#000000"
     borderopacity="0.25"
     showpageshadow="2"
     pageopacity="0.0"
     pagecheckerboard="0"
     deskcolor="#d1d1d1"
     showgrid="false"
     zoom="0.35027975"
     cx="448.21318"
     cy="599.52081"
     window-width="1366"
     window-height="715"
     window-x="-8"
     window-y="22"
     window-maximized="1"
     current-layer="f1ce7683-91e7-4366-ba02-208d870f4901" />
  <defs
     id="defs4">
    <style
       id="style2">.a9b37826-4250-4f82-89c2-e126adb21ba1,.aa991ea5-8827-443c-b8f6-a8aae6fa7f43,.b4fa653c-8d23-47ff-aee2-f2c8ed013e5e,.b6b8ed20-d390-406b-99f1-91df860b371d{fill:#fff;}.b4fa653c-8d23-47ff-aee2-f2c8ed013e5e{font-size:45.24px;}.a9b37826-4250-4f82-89c2-e126adb21ba1,.b4fa653c-8d23-47ff-aee2-f2c8ed013e5e,.b6b8ed20-d390-406b-99f1-91df860b371d{font-family:Poppins-Medium, Poppins;font-weight:500;}.b6b8ed20-d390-406b-99f1-91df860b371d{font-size:72.1px;}.a9b37826-4250-4f82-89c2-e126adb21ba1{font-size:37.26px;}.ea67a9d9-05f4-4cbc-a483-25afbfadae61{fill:none;stroke:#fff;stroke-miterlimit:10;}</style>
  </defs>
  <circle
     class="aa991ea5-8827-443c-b8f6-a8aae6fa7f43"
     cx="521.88"
     cy="613.63"
     r="43.91"
     id="circle6"
     style="stroke:none;stroke-opacity:1;fill:#ffffff;fill-opacity:1;stroke-width:8.5;stroke-dasharray:none;stroke-miterlimit:5.47" />
  <path
     class="aa991ea5-8827-443c-b8f6-a8aae6fa7f43"
     d="M736.37,404.37c-19.75-1.31-39.45-3.4-59.18-5-22.27-1.86-44.54-3.7-66.82-5.32a11.62,11.62,0,0,0-12.06,10.1c-.76,6,2.88,11.11,9.18,12.57a53.08,53.08,0,0,0,7.5,1.24q61,5,121.92,9.84c4.41.34,5.62,1.61,4.44,5.94q-11.08,40.73-21.82,81.55c-1.85,7-5.65,11.46-13.18,11.9-22.53,1.34-45.06,2.79-67.61,3.88-45.12,2.18-90.26,4.16-135.39,6.22-15.19.7-30.38,1.56-45.59,2-7.93.25-11.38-2.57-13.28-10.1Q429.23,469,414.08,408.72c-1.71-6.81-.26-8.33,6.63-7.72,20.42,1.79,40.83,3.59,61.26,5.28,6.44.53,11.69-3.54,12.52-9.32,1-7.23-2.35-12.21-9.52-13.37-5.44-.88-10.94-1.52-16.44-1.87-19.49-1.26-39-2.25-58.48-3.67-1.61-.12-3.88-2.52-4.4-4.29-2.46-8.34-4.45-16.82-6.55-25.27s-5.43-11.19-13.92-11.31-17.07,0-25.6,0v.62c-8.53,0-17.07-.14-25.6.09a13.53,13.53,0,0,0-7.05,2c-4.31,3-6.05,7.45-4.34,12.68,1.78,5.45,5.78,8.16,11.47,8.17,12.91,0,25.83,0,38.75-.21,2,0,3.38.2,4.43,1a6.34,6.34,0,0,1,2.14,4c.77,4.05,10.24,39.68,23.55,89.38,1.6,1.48,3.23,3.1,4.88,4.89.85.92,1.65,1.83,2.42,2.73l5.31,5.8a51.57,51.57,0,0,1,4.45,6.66,52.3,52.3,0,0,1,5.78,16,63.82,63.82,0,0,1,1,12.06c0,.69-.11,3-.31,7.65-.18,4.1-.27,6.17-.41,6.91-.6,3.21-1.45,4.34-1.86,8.14-.15,1.43-.06,1.57-.18,3a34,34,0,0,1-1.75,8.22q.57,1.85,1.2,3.66c5.63,16.2,20.78,23.22,41.68,22.07,51.09-2.79,102.2-5.18,153.31-7.72,29.92-1.49,59.87-2.62,89.76-4.61,18.25-1.21,29.39-11.53,34-29.15,6.83-26.38,13.44-52.82,20.79-79.06C769.23,419.62,759.71,405.92,736.37,404.37Z"
     id="path8"
     style="stroke:none;stroke-opacity:1;fill:#ffffff;fill-opacity:1;stroke-width:8.5;stroke-dasharray:none;stroke-miterlimit:5.47" />
  <circle
     class="aa991ea5-8827-443c-b8f6-a8aae6fa7f43"
     cx="647.63"
     cy="609.64"
     r="43.91"
     id="circle10"
     style="stroke:none;stroke-opacity:1;fill:#ffffff;fill-opacity:1;stroke-width:8.5;stroke-dasharray:none;stroke-miterlimit:5.47" />
  <text
     class="b4fa653c-8d23-47ff-aee2-f2c8ed013e5e"
     transform="translate(759.51 351.58)"
     id="text12"
     style="stroke:#ffffff;stroke-opacity:1;fill:none;fill-opacity:1;stroke-width:2.52761526;stroke-dasharray:none;stroke-miterlimit:5.47">©</text>
  <path
     class="aa991ea5-8827-443c-b8f6-a8aae6fa7f43"
     d="M354.71,647.84c-1.42-2.23-2.37-3.61-3.22-5.06-13.05-22.14-26.18-44.22-39.08-66.45a142,142,0,0,1-19.58-65.74c-1.6-37.08,22.76-61.25,47.82-67.24,25.73-6.15,46.26,3.1,62.44,23,15.13,18.59,17.35,39.87,11.6,62.43a198.24,198.24,0,0,1-19.4,48.55c-12.08,21.44-24.46,42.72-36.72,64.07C357.5,643.23,356.37,645.05,354.71,647.84Zm52.09-141A51.82,51.82,0,0,0,356,454.62c-26.8-.66-52.33,21.36-52.52,51.19-.18,29.34,22.67,52.93,51.45,53.06C383.42,559,406.61,535.74,406.8,506.88Z"
     id="path14"
     style="stroke:none;stroke-opacity:1;fill:#ffffff;fill-opacity:1;stroke-width:8.5;stroke-dasharray:none;stroke-miterlimit:5.47" />
  <path
     class="aa991ea5-8827-443c-b8f6-a8aae6fa7f43"
     d="M522.61,465.31c.66,1.2,1.16,2.51,1.94,3.65a41.53,41.53,0,0,1,7.53,20.89c.65,7.26.13,14.3-4.29,20.29a40.6,40.6,0,0,1-8.72,8.17,36,36,0,0,1-23,7.13,19,19,0,0,1-5.9-1.08c-6.27-2.17-12.61-4.46-17.81-8.85-4.45-3.71-6.9-8.78-8.2-14.24a45.88,45.88,0,0,1-1.07-10.59c.06-8.8,2.32-17,8.38-23.64a28.68,28.68,0,0,1,16.31-9c5.58-1.07,11.3-1.38,17-1.91a37.28,37.28,0,0,1,4.2.32,5,5,0,0,0,1.54-.34c-.3-.44-.54-.93-.84-1.3-1.76-2.15-3.52-4.25-5.18-6.4a2.57,2.57,0,0,1-.47-2c.45-2.36,5.08-6.12,7.47-6.23,4.28-.18,6-1.43,6.94-5.48,1.27-5.46,2.09-10.84,0-16.43-1.7-4.43.94-5.27,4.37-5.81a23.3,23.3,0,0,1,4.44-.25c3.51.07,4.39-2.7,5.62-5.15,1-2.05-.58-3.14-1.58-4.44-6.75-9.23-13.72-18.33-20.2-27.74-5.83-8.54-10.95-17.51-14.23-27.39-1.4-4.23-1.88-8.72-3.45-12.88-1.9-5.26-4.78-10-10.76-11.84-4.74-1.4-8.37.93-11.7,3.69-2.26,1.88-4,4.35-6.07,6.44-1.07,1.05-1.94.37-2.65-.66-3.15-4.6-6.3-9.19-9.51-13.73-7-9.89-14-19.72-21-29.6-1.25-1.78-2.17-3.75-3.36-5.53-1.18-1.62-.46-2.93.78-3.82,4.58-3.43,9.1-7.19,14-10a56.93,56.93,0,0,1,20.18-7.17c13.5-2,24.94,2.37,35.53,10.2,9.55,7.05,16.85,16.14,22.64,26.3,2.3,4.13,3.18,9.11,4.39,13.79,2.12,7.92,3.87,16,6.1,23.84,2.36,8.14,5.11,16.15,7.8,24.16a39.52,39.52,0,0,0,3.08,6.77c1.63,2.94,2.2,5.87.9,9.15-1.76,4.48-3.35,8.95-5,13.47-.59,1.81-1.06,3.61-1.54,5.47a4.61,4.61,0,0,0,0,1.23,10.32,10.32,0,0,0,.68-.87c3.57-5,5.72-10.66,7.59-16.37,2-6.32,3.73-12.74,5.18-19.15,1.12-5,1.28-10.14,2.35-15a135.9,135.9,0,0,1,11.62-33.53,95.93,95.93,0,0,1,17.45-24,87.9,87.9,0,0,1,27.09-18.44c7.65-3.4,15.63-5.53,23.67-7.61,1.59-.46,3.32-.53,5-.83,2.66-.5,2,2,2.25,3a150.34,150.34,0,0,1,2.52,33.47,101.68,101.68,0,0,1-11.26,44.48,113.16,113.16,0,0,1-11.69,17.94c-8.55,10.84-19.1,19.26-30.82,26.29A94,94,0,0,0,570.59,401c-4.43,4.54-8.74,9.12-13.1,13.77-.38.35-.46,1-.71,1.53a17,17,0,0,0,1.73.21c4.91.28,6.62-4,9.29-6.76,1.54-1.57,2.45-1.11,3.57.18,3.28,3.76,6.51,7.57,10,11.21,2.86,3,6.1,5.86,9,8.91a2.73,2.73,0,0,0,4,.32,95.61,95.61,0,0,0,8-7.09c1.39-1.34,1.84-1.36,2.2.52.64,3.26,1.39,6.4,1.81,9.67.56,3.87.56,7.82,1.18,11.64s4.13,5.33,6.57,7.67c.87.8,2.33,1,3.09,1.87,1.82,2.21,3.86,1.67,6.18,1.24.88-.15,2.69.55,2.89,1.21,2.75,8.29,8.79,13.82,15.41,18.82,4.26,3.26,8.63,6.3,13,9.28a9.55,9.55,0,0,0,3.22.92,16.61,16.61,0,0,0,3.69.4c2.94-.24,3.2,1.75,2.89,3.72-.86,5.71-1.12,6.11,6,8.7,5,1.84,5.43,4.5,2.13,7.93-2.13,2.26-4.26,4.64-6.38,7-1,1.1-1.68,2.35-2.7,3.34-2.61,2.62-6.36,2.18-7.85-1.38-.69-1.75-1.22-3.57-1.9-5.32-.63-1.47-1.32-2.17-3.23-1.25-4.37,1.92-6.14,1.1-6.89-3.43-.61-3.87-2.79-6.56-5.4-8.84-5.91-5.26-12-10.34-18.31-15.07-1.9-1.42-4.91-1.46-7.38-2.13-.45-.09-.9-.13-1.29-.17-1.68-.26-3.79,0-4.78-1-.75-.75.48-3.19-.08-4.51a91.83,91.83,0,0,0-4.67-8.59c-3.32-6.09-9.25-6.73-15.24-7.47-3.53-.46-7.07-1.08-10.55-1.82-1.35-.28-2-1.25-1.18-2.73s1.38-2.79,2.22-4.11c1.19-1.94.53-3.08-1.14-4.24a122.94,122.94,0,0,1-11.31-8c-3.47-3-6.47-6.57-9.73-9.82-.35-.37-1-.73-1.31-.61s-.85,1-.72,1.31c.44,1.26,1.11,2.51,1.66,3.71s1.68,2.6,1.9,3.93c.55,3.54-.7,4.32-4.18,5-7,1.36-13,4.69-16.66,11.14a5.08,5.08,0,0,0,.35,4.38c2.34,3.8.22,10.13-4.09,10.76-1.61.29-3.37-.52-5-.89-1.3-.28-2.53-.56-3.94-.94a2.8,2.8,0,0,0-.68-.2l.52.31M527,444c1.9-2.42,3.92-4.79,5.64-7.37a115.36,115.36,0,0,0,7.14-11.34c1.59-3,5.17-5.29,3.59-9.51-.12-.33.35-.91.61-1.36,4-6.24,7.81-12.48,11.83-18.67,6.15-9.51,12.54-18.92,18.52-28.54,1.46-2.35,2.83-2.69,4.94-1.72,7.9,3.61,17.21.14,21.68-7.24A18,18,0,0,0,597.77,336c-1.28-1.11-1.83-2.31-.89-3.74,1.09-1.72,2.64-3.24,3.4-5.05.91-2.16,2.52-2.12,3.93-1.73,6.21,1.79,11.44.5,16.56-3.51,7.75-6,8.58-18.92,1.65-25.8-1.39-1.33-1.61-2.43-.46-4.21,5-7.62,9.91-15.36,14.76-23.08.62-1,.33-2.64.49-4a14.9,14.9,0,0,0-2.57,2.28c-5.18,7.69-10.36,15.32-15.31,23.17-1,1.66-2.08,2-3.39,1.43a17.56,17.56,0,0,0-9.29-1.1A16.46,16.46,0,0,0,593,300.53a17.52,17.52,0,0,0,.73,16.79c1.27,2.17,3.75,4.23,3.73,6.35s-2.71,4.19-3.84,6.41c-1,2-2.08,2.09-4.05,1.62-6.13-1.51-11.45.44-16.06,4.49-6.44,5.68-7.44,17.19-1.68,24.18a4.22,4.22,0,0,1,.34,3.83c-1.18,2.39-3,4.53-4.5,6.82-8.95,14.26-17.91,28.46-26.86,42.77-.53.8-1.07,2.27-.71,2.87.9,1.63.16,2.56-.62,3.82-3.9,6.29-7.8,12.64-11.53,19-.78,1.32-.87,3-1.53,4.47-.27.18-.77.31-.76.53a2.92,2.92,0,0,0,.33,1.1c.38-.18.82-.31,1-.66.16-.17-.2-.66,0-1M478.44,474.2a26.33,26.33,0,0,0-6.9,12.77c-1.85,8.66.64,16.07,6.7,22.15,6.93,7,15.48,9,24.71,5.94a23,23,0,0,0,15.12-14.58c1.84-5,2.46-9.85.86-14.74-1-3.24-3-6.21-4.74-9.09-.84-1.36-1.84-1.31-2.83.35-3.41,5.94-7,11.83-10.64,17.72-1.56,2.47-2.51,2.34-6.19-.34-1.85-1.37-.63-2.81.1-4,3.59-5.78,7.4-11.52,10.94-17.35.68-1,1.55-2.8-.55-3.54a27,27,0,0,0-14.59-1.43c-4.53.87-8.16,3.25-12,6.15m45.7-24.82c-.35-.38-.65-.81-1-1.24l-.59.64a2.75,2.75,0,0,0,1.59.6m12.78-51.79c.11.05.22.16.34.21,0-.17-.07-.33-.34-.21"
     id="path16"
     style="stroke:none;stroke-opacity:1;fill:#ffffff;fill-opacity:1;stroke-width:8.5;stroke-dasharray:none;stroke-miterlimit:5.47" />
  <text
     class="b6b8ed20-d390-406b-99f1-91df860b371d"
     transform="translate(172.38 777.17)"
     id="text18"
     style="stroke:none;stroke-opacity:1;fill:#ffffff;fill-opacity:1;stroke-width:4.5;stroke-dasharray:none;stroke-miterlimit:5.47">unibenMarketplace</text>
  <text
     class="a9b37826-4250-4f82-89c2-e126adb21ba1"
     transform="translate(877.74 735.12)"
     id="text20"
     style="stroke:#ffffff;stroke-opacity:1;fill:none;fill-opacity:1;stroke-width:1.5;stroke-dasharray:none;stroke-miterlimit:5.47">®</text>
  <circle
     class="ea67a9d9-05f4-4cbc-a483-25afbfadae61"
     cx="540"
     cy="540"
     r="500"
     id="circle22"
     style="stroke:#ffffff;stroke-opacity:1;fill:none;fill-opacity:1;stroke-width:14.528;stroke-dasharray:none;stroke-miterlimit:5.47"
     inkscape:export-filename="..\..\..\..\..\..\..\circle_logo.png"
     inkscape:export-xdpi="96"
     inkscape:export-ydpi="96" />
</svg>
