<svg xmlns="http://www.w3.org/2000/svg" viewBox="0 0 1080 1080"><defs><style>.b4477a8c-c58f-4d26-8247-64c68fb499ab,.b50de330-a0e8-4c3b-9f37-806e17ad6c54,.b8f98a75-c677-46ec-91f9-3f1be26f5687,.bba85b81-b44e-4c72-beeb-c305fc74050a{fill:#fff;}.b4477a8c-c58f-4d26-8247-64c68fb499ab{font-size:61.54px;}.b4477a8c-c58f-4d26-8247-64c68fb499ab,.b50de330-a0e8-4c3b-9f37-806e17ad6c54,.b8f98a75-c677-46ec-91f9-3f1be26f5687{font-family:Poppins-Medium, Poppins;font-weight:500;}.b50de330-a0e8-4c3b-9f37-806e17ad6c54{font-size:98.06px;}.b8f98a75-c677-46ec-91f9-3f1be26f5687{font-size:50.68px;}</style></defs><g id="ed7ea36d-1855-469f-9831-cf2ff03ce0ba" data-name="Layer 2"><circle class="bba85b81-b44e-4c72-beeb-c305fc74050a" cx="503.86" cy="655.91" r="59.73"/><path class="bba85b81-b44e-4c72-beeb-c305fc74050a" d="M795.59,371.3c-26.87-1.79-53.66-4.63-80.5-6.86-30.28-2.53-60.57-5-90.87-7.24-8.25-.6-15.41,5.91-16.4,13.74-1,8.22,3.91,15.12,12.49,17.1a71.94,71.94,0,0,0,10.19,1.68q82.9,6.81,165.82,13.38c6,.47,7.65,2.19,6,8.09q-15.06,55.4-29.68,110.91c-2.5,9.54-7.67,15.59-17.91,16.2-30.65,1.82-61.3,3.78-92,5.26-61.38,3-122.76,5.66-184.15,8.47-20.66,1-41.33,2.12-62,2.77-10.79.33-15.47-3.5-18.07-13.73q-20.74-81.92-41.34-163.86c-2.32-9.26-.35-11.32,9-10.5,27.77,2.44,55.53,4.89,83.31,7.18,8.77.72,15.91-4.81,17-12.68,1.41-9.83-3.2-16.6-12.94-18.18-7.41-1.19-14.89-2.06-22.37-2.54-26.51-1.71-53.05-3.06-79.54-5-2.19-.16-5.28-3.42-6-5.82-3.34-11.35-6-22.88-8.9-34.37-2.81-11.32-7.39-15.23-18.94-15.39s-23.21,0-34.82,0v.84c-11.6,0-23.21-.19-34.81.13-3.25.08-7,.87-9.59,2.68-5.87,4.12-8.23,10.13-5.91,17.24,2.43,7.41,7.86,11.1,15.6,11.12,17.57,0,35.14.05,52.71-.29,2.68,0,4.6.27,6,1.34a8.6,8.6,0,0,1,2.91,5.4c1,5.52,13.94,54,32,121.57,2.17,2,4.39,4.22,6.63,6.65,1.16,1.25,2.25,2.49,3.29,3.72l7.23,7.88a69.82,69.82,0,0,1,6,9.06,71.1,71.1,0,0,1,7.86,21.71,85.87,85.87,0,0,1,1.33,16.4c0,.94-.15,4.1-.42,10.41-.24,5.57-.37,8.38-.56,9.39-.81,4.36-2,5.91-2.52,11.07-.21,1.95-.09,2.14-.26,4.16a45.73,45.73,0,0,1-2.38,11.18c.53,1.66,1.07,3.33,1.64,5,7.65,22,28.26,31.57,56.69,30,69.49-3.8,139-7,208.51-10.5,40.7-2,81.44-3.57,122.09-6.27,24.83-1.65,40-15.68,46.19-39.65,9.3-35.88,18.28-71.84,28.28-107.53C840.29,392,827.33,373.41,795.59,371.3Z"/><circle class="bba85b81-b44e-4c72-beeb-c305fc74050a" cx="674.9" cy="650.48" r="59.73"/><text class="b4477a8c-c58f-4d26-8247-64c68fb499ab" transform="translate(827.07 299.49)">©</text><path class="bba85b81-b44e-4c72-beeb-c305fc74050a" d="M276.49,702.44c-1.93-3-3.22-4.92-4.38-6.88-17.74-30.11-35.61-60.15-53.15-90.37-16-27.63-25.25-57.64-26.63-89.43-2.18-50.43,31-83.3,65-91.45,35-8.37,62.92,4.21,84.93,31.25,20.58,25.28,23.59,54.22,15.77,84.91a269.68,269.68,0,0,1-26.38,66c-16.44,29.17-33.27,58.11-49.95,87.14C280.29,696.17,278.75,698.65,276.49,702.44Zm70.84-191.73a70.47,70.47,0,0,0-69.07-71.07c-36.45-.9-71.18,29.05-71.43,69.63-.25,39.89,30.83,72,70,72.16C315.54,581.6,347.09,550,347.33,510.71Z"/><path class="bba85b81-b44e-4c72-beeb-c305fc74050a" d="M504.85,454.18c.9,1.63,1.59,3.42,2.64,5a56.46,56.46,0,0,1,10.25,28.41c.88,9.89.17,19.46-5.84,27.6-3.15,4.3-7.53,7.9-11.86,11.12a49,49,0,0,1-31.31,9.7,26.6,26.6,0,0,1-8-1.47c-8.54-3-17.15-6.07-24.23-12-6.05-5-9.38-11.93-11.15-19.36a61.61,61.61,0,0,1-1.46-14.4c.09-12,3.16-23.08,11.4-32.15a39,39,0,0,1,22.19-12.26c7.58-1.46,15.37-1.88,23.14-2.6,1.88-.15,3.8.37,5.7.44a7.23,7.23,0,0,0,2.1-.47c-.41-.59-.74-1.26-1.14-1.77-2.4-2.93-4.8-5.77-7.05-8.71a3.48,3.48,0,0,1-.64-2.69c.61-3.21,6.9-8.33,10.15-8.48,5.83-.25,8.18-1.94,9.45-7.45,1.72-7.42,2.84-14.74,0-22.34-2.31-6,1.28-7.18,5.94-7.91a31.86,31.86,0,0,1,6.05-.34c4.77.09,6-3.67,7.64-7,1.4-2.79-.79-4.28-2.15-6C507.48,356.37,498,344,489.19,331.19c-7.93-11.62-14.9-23.82-19.35-37.26-1.92-5.75-2.56-11.85-4.7-17.51-2.59-7.16-6.51-13.66-14.64-16.1-6.45-1.92-11.38,1.25-15.92,5-3.06,2.55-5.42,5.91-8.25,8.76-1.45,1.43-2.63.5-3.6-.9-4.28-6.25-8.57-12.5-12.93-18.67-9.52-13.45-19-26.82-28.57-40.26-1.69-2.43-2.94-5.1-4.56-7.53-1.62-2.2-.63-4,1.06-5.2,6.23-4.66,12.37-9.78,19.09-13.63a77.4,77.4,0,0,1,27.45-9.75c18.36-2.77,33.92,3.21,48.32,13.87,13,9.58,22.92,21.95,30.8,35.77,3.12,5.62,4.32,12.38,6,18.75,2.9,10.78,5.27,21.73,8.31,32.43,3.21,11.07,6.94,22,10.6,32.87a55,55,0,0,0,4.18,9.2c2.22,4,3,8,1.23,12.45-2.39,6.09-4.55,12.16-6.78,18.32-.8,2.46-1.45,4.91-2.1,7.44a6.59,6.59,0,0,0,0,1.66,11.89,11.89,0,0,0,.93-1.17c4.86-6.8,7.78-14.5,10.32-22.27,2.73-8.6,5.07-17.33,7-26.05,1.53-6.73,1.75-13.79,3.2-20.44,3.48-15.83,8.34-31.11,15.81-45.6a130.17,130.17,0,0,1,23.73-32.62,119.68,119.68,0,0,1,36.85-25.09c10.4-4.62,21.25-7.51,32.19-10.34a67.77,67.77,0,0,1,6.77-1.12c3.6-.69,2.77,2.75,3,4a204.47,204.47,0,0,1,3.42,45.52,138.16,138.16,0,0,1-15.31,60.5,153.38,153.38,0,0,1-15.9,24.4c-11.63,14.75-26,26.2-41.92,35.76-9.29,5.63-17.32,12.64-24.86,20.32-6,6.17-11.88,12.41-17.82,18.73-.51.47-.62,1.39-1,2.08.77.12,1.61.24,2.36.28,6.69.39,9-5.47,12.63-9.19,2.1-2.13,3.34-1.5,4.86.25,4.46,5.1,8.85,10.29,13.54,15.24,3.89,4.14,8.3,8,12.19,12.11a3.71,3.71,0,0,0,5.47.45A132.79,132.79,0,0,0,613.31,397c1.89-1.82,2.5-1.85,3,.71.87,4.43,1.89,8.7,2.47,13.14.76,5.27.76,10.65,1.59,15.84S626,434,629.3,437.17c1.19,1.09,3.17,1.38,4.2,2.54,2.48,3,5.25,2.28,8.41,1.68,1.2-.2,3.67.75,3.93,1.65,3.75,11.27,11.95,18.79,21,25.59,5.8,4.45,11.74,8.58,17.74,12.64,1.17.78,2.92.93,4.38,1.24a22.11,22.11,0,0,0,5,.54c4-.32,4.34,2.39,3.93,5.06-1.18,7.77-1.53,8.32,8.09,11.84,6.85,2.5,7.39,6.11,2.89,10.78-2.89,3.08-5.78,6.31-8.67,9.47-1.3,1.49-2.29,3.2-3.67,4.55-3.55,3.56-8.65,3-10.68-1.88-.94-2.39-1.65-4.85-2.59-7.24-.84-2-1.79-3-4.39-1.7-6,2.61-8.34,1.5-9.37-4.67-.83-5.26-3.8-8.92-7.34-12-8-7.15-16.29-14.06-24.9-20.5-2.59-1.93-6.68-2-10-2.9a17.42,17.42,0,0,0-1.75-.22c-2.29-.36-5.15,0-6.5-1.31-1-1,.65-4.34-.11-6.13-1.7-4.09-4.2-7.77-6.34-11.69-4.53-8.28-12.6-9.14-20.74-10.15-4.8-.63-9.61-1.48-14.35-2.48-1.84-.38-2.73-1.7-1.6-3.72,1.05-1.86,1.88-3.79,3-5.58,1.63-2.65.73-4.2-1.54-5.77-5.22-3.48-10.6-6.81-15.39-10.84s-8.8-8.93-13.23-13.36c-.48-.51-1.41-1-1.78-.83s-1.15,1.34-1,1.78c.6,1.72,1.51,3.42,2.26,5.06.91,1.77,2.28,3.53,2.58,5.34.74,4.81-1,5.87-5.68,6.83-9.54,1.86-17.75,6.38-22.67,15.15-.84,1.48-.49,4.42.49,6,3.18,5.16.3,13.77-5.57,14.63-2.18.4-4.58-.71-6.87-1.22-1.76-.37-3.45-.75-5.36-1.28a4.88,4.88,0,0,0-.92-.26l.7.42m5.93-29c2.58-3.3,5.32-6.52,7.66-10a155.78,155.78,0,0,0,9.71-15.42c2.17-4,7-7.2,4.89-12.94-.17-.45.47-1.23.83-1.85,5.38-8.49,10.62-17,16.08-25.4,8.37-12.93,17.06-25.73,25.2-38.81,2-3.19,3.85-3.65,6.71-2.34,10.74,4.91,23.41.19,29.49-9.84,5.87-9.5,4-22.9-4.27-30.26-1.74-1.52-2.49-3.15-1.21-5.1,1.49-2.34,3.59-4.4,4.62-6.87,1.24-2.93,3.44-2.87,5.35-2.35,8.44,2.43,15.56.68,22.52-4.77,10.55-8.11,11.67-25.73,2.25-35.09-1.89-1.81-2.19-3.31-.62-5.73,6.81-10.37,13.47-20.88,20.06-31.4.85-1.4.45-3.58.67-5.4-1.16,1-2.64,1.85-3.5,3.1-7,10.46-14.08,20.84-20.81,31.51-1.42,2.26-2.84,2.7-4.62,1.94a23.8,23.8,0,0,0-12.63-1.49c-8.82,1-15,5.88-18.58,13.46a23.8,23.8,0,0,0,1,22.83c1.72,2.95,5.1,5.76,5.07,8.64s-3.69,5.69-5.23,8.71c-1.32,2.7-2.83,2.85-5.5,2.21-8.35-2.06-15.58.6-21.85,6.1-8.76,7.73-10.12,23.39-2.28,32.89a5.74,5.74,0,0,1,.45,5.21c-1.6,3.25-4.12,6.16-6.11,9.28-12.18,19.39-24.36,38.7-36.54,58.17-.71,1.09-1.46,3.09-1,3.9,1.24,2.22.23,3.48-.83,5.19-5.31,8.56-10.61,17.2-15.69,25.9-1.05,1.79-1.18,4.07-2.08,6.08-.37.24-1,.42-1,.72a4.05,4.05,0,0,0,.45,1.5,3.1,3.1,0,0,0,1.4-.89c.21-.24-.27-.9-.06-1.36m-66,41.12a35.93,35.93,0,0,0-9.39,17.38c-2.51,11.77.88,21.85,9.12,30.12,9.42,9.51,21.06,12.26,33.6,8.08,9.78-3.23,16.92-9.75,20.57-19.83,2.5-6.78,3.35-13.4,1.17-20-1.41-4.41-4.08-8.45-6.45-12.37-1.14-1.84-2.5-1.78-3.84.47-4.65,8.08-9.52,16.1-14.48,24.11-2.12,3.35-3.42,3.18-8.42-.46-2.51-1.86-.85-3.83.14-5.46,4.88-7.86,10.07-15.66,14.87-23.6.93-1.4,2.11-3.8-.74-4.81a36.66,36.66,0,0,0-19.85-1.94c-6.16,1.18-11.09,4.42-16.3,8.36m62.15-33.76c-.47-.51-.88-1.1-1.36-1.68l-.79.86a3.6,3.6,0,0,0,2.15.82m17.38-70.44c.16.07.31.21.47.28,0-.22-.1-.45-.47-.28"/><text class="b50de330-a0e8-4c3b-9f37-806e17ad6c54" transform="translate(28.51 878.34)">unibenMarketplace</text><text class="b8f98a75-c677-46ec-91f9-3f1be26f5687" transform="translate(987.87 821.15)">®</text></g></svg>