<?xml version="1.0" encoding="UTF-8"?>
<svg id="Layer_2" data-name="Layer 2" xmlns="http://www.w3.org/2000/svg" viewBox="0 0 194.54 194.54">
  <defs>
    <style>
      .cls-1 {
        fill: none;
        stroke: #370066;
        stroke-miterlimit: 10;
        stroke-width: 8px;
      }

      .cls-2 {
        fill: #370066;
      }
    </style>
  </defs>
  <g id="Layer_2-2" data-name="Layer 2">
    <g>
      <g>
        <circle class="cls-2" cx="95.17" cy="144.04" r="13.3"/>
        <path class="cls-2" d="m160.14,80.66c-5.98-.4-11.95-1.03-17.93-1.53-6.74-.56-13.49-1.12-20.24-1.61-1.84-.13-3.43,1.32-3.65,3.06-.23,1.83.87,3.37,2.78,3.81.75.17,1.51.31,2.27.38,12.31,1.01,24.61,2.02,36.93,2.98,1.34.1,1.7.49,1.35,1.8-2.24,8.22-4.44,16.46-6.61,24.7-.56,2.12-1.71,3.47-3.99,3.61-6.83.41-13.65.84-20.48,1.17-13.67.66-27.34,1.26-41.01,1.89-4.6.21-9.2.47-13.81.62-2.4.08-3.45-.78-4.02-3.06-3.08-12.16-6.15-24.32-9.21-36.49-.52-2.06-.08-2.52,2.01-2.34,6.18.54,12.37,1.09,18.55,1.6,1.95.16,3.54-1.07,3.79-2.82.31-2.19-.71-3.7-2.88-4.05-1.65-.27-3.31-.46-4.98-.57-5.9-.38-11.81-.68-17.71-1.11-.49-.04-1.18-.76-1.33-1.3-.75-2.53-1.35-5.1-1.98-7.65-.63-2.52-1.64-3.39-4.22-3.43-2.58-.04-5.17,0-7.75,0,0,.06,0,.13,0,.19-2.58,0-5.17-.04-7.75.03-.72.02-1.56.19-2.14.6-1.31.92-1.83,2.26-1.32,3.84.54,1.65,1.75,2.47,3.47,2.48,3.91,0,7.83.01,11.74-.06.6-.01,1.03.06,1.34.3.51.38.62,1.03.65,1.2.23,1.23,3.1,12.02,7.13,27.07.48.45.98.94,1.48,1.48.26.28.5.56.73.83.54.58,1.07,1.17,1.61,1.75.37.47.86,1.15,1.35,2.02.4.7,1.3,2.43,1.75,4.83.31,1.66.3,3.12.3,3.65,0,.21-.03.91-.09,2.32-.05,1.24-.08,1.87-.12,2.09-.18.97-.44,1.32-.56,2.47-.05.44-.02.48-.06.93-.06.72-.21,1.56-.53,2.49.12.37.24.74.37,1.11,1.7,4.9,6.29,7.03,12.62,6.68,15.47-.85,30.96-1.57,46.44-2.34,9.06-.45,18.14-.79,27.19-1.4,5.53-.37,8.9-3.49,10.29-8.83,2.07-7.99,4.07-16,6.3-23.95,1.91-6.8-.98-10.95-8.05-11.42Z"/>
        <circle class="cls-2" cx="133.26" cy="142.83" r="13.3"/>
        <path class="cls-2" d="m44.54,154.4c-.43-.67-.72-1.09-.98-1.53-3.95-6.71-7.93-13.4-11.84-20.13-3.57-6.15-5.62-12.84-5.93-19.91-.49-11.23,6.89-18.55,14.48-20.37,7.79-1.86,14.01.94,18.91,6.96,4.58,5.63,5.25,12.08,3.51,18.91-1.31,5.15-3.26,10.07-5.87,14.7-3.66,6.49-7.41,12.94-11.12,19.41-.32.56-.67,1.12-1.17,1.96Zm15.78-42.7c.05-8.69-6.82-15.62-15.38-15.83-8.12-.2-15.85,6.47-15.91,15.51-.06,8.88,6.87,16.03,15.58,16.07,8.63.04,15.65-7.01,15.71-15.75Z"/>
        <path class="cls-2" d="m95.39,99.12c.2.36.35.76.59,1.1,1.36,1.9,2.06,4.01,2.28,6.33.2,2.2.04,4.33-1.3,6.15-.7.96-1.68,1.76-2.64,2.48-2.06,1.52-4.41,2.23-6.97,2.16-.59,0-1.22-.13-1.79-.33-1.9-.66-3.82-1.35-5.4-2.68-1.35-1.12-2.09-2.66-2.48-4.31-.25-1.03-.33-2.14-.33-3.21.02-2.67.7-5.14,2.54-7.16,1.34-1.48,3.03-2.38,4.94-2.73,1.69-.33,3.42-.42,5.15-.58.42-.04.85.08,1.27.1.15.01.32-.06.47-.1-.09-.13-.16-.28-.25-.39-.53-.65-1.07-1.29-1.57-1.94-.12-.15-.19-.41-.14-.6.14-.71,1.54-1.85,2.26-1.89,1.3-.06,1.82-.43,2.1-1.66.38-1.65.63-3.28,0-4.98-.51-1.34.28-1.6,1.32-1.76.43-.09.89-.07,1.35-.08,1.06.02,1.33-.82,1.7-1.56.31-.62-.18-.95-.48-1.35-2.04-2.8-4.16-5.55-6.12-8.4-1.77-2.59-3.32-5.3-4.31-8.3-.43-1.28-.57-2.64-1.05-3.9-.58-1.59-1.45-3.04-3.26-3.59-1.44-.43-2.53.28-3.54,1.12-.68.57-1.21,1.32-1.84,1.95-.32.32-.59.11-.8-.2-.95-1.39-1.91-2.78-2.88-4.16-2.12-2.99-4.24-5.97-6.36-8.97-.38-.54-.66-1.14-1.02-1.68-.36-.49-.14-.89.24-1.16,1.39-1.04,2.76-2.18,4.25-3.04,1.89-1.08,3.92-1.86,6.11-2.17,4.09-.62,7.55.72,10.76,3.09,2.89,2.13,5.1,4.89,6.86,7.97.7,1.25.96,2.76,1.33,4.18.64,2.4,1.17,4.84,1.85,7.22.71,2.47,1.55,4.89,2.36,7.32.23.7.57,1.39.93,2.05.49.89.67,1.78.27,2.77-.53,1.36-1.01,2.71-1.51,4.08-.18.55-.32,1.09-.47,1.66-.03.12,0,.25,0,.37.08-.09.14-.17.21-.26,1.08-1.51,1.73-3.23,2.3-4.96.61-1.92,1.13-3.86,1.57-5.8.34-1.5.39-3.07.71-4.55.77-3.53,1.86-6.93,3.52-10.16,1.42-2.71,3.13-5.13,5.28-7.26,2.38-2.38,5.11-4.22,8.21-5.59,2.32-1.03,4.73-1.67,7.17-2.3.48-.14,1-.16,1.51-.25.8-.15.62.61.68.9.67,3.34.85,6.74.76,10.14-.12,4.71-1.23,9.25-3.41,13.47-1,1.93-2.2,3.72-3.54,5.43-2.59,3.28-5.78,5.84-9.33,7.96-2.07,1.25-3.86,2.82-5.54,4.53-1.34,1.37-2.65,2.76-3.97,4.17-.11.11-.14.31-.22.46.17.03.36.05.53.06,1.49.09,2-1.22,2.81-2.05.47-.48.74-.34,1.08.05.99,1.14,1.97,2.29,3.02,3.39.87.92,1.85,1.77,2.72,2.7.42.44.84.38,1.22.1.85-.68,1.68-1.39,2.44-2.15.42-.41.56-.41.66.16.19.99.42,1.94.55,2.93.17,1.17.17,2.37.36,3.53.18,1.14,1.25,1.62,1.99,2.33.26.24.7.31.94.57.55.67,1.17.51,1.87.37.27-.05.82.17.88.37.83,2.51,2.66,4.18,4.67,5.7,1.29.99,2.61,1.91,3.95,2.81.26.17.65.21.97.28.37.07.75.14,1.12.12.89-.07.97.53.88,1.13-.26,1.73-.34,1.85,1.8,2.64,1.53.56,1.64,1.36.64,2.4-.64.69-1.29,1.41-1.93,2.11-.29.33-.51.71-.82,1.01-.79.79-1.93.66-2.38-.42-.21-.53-.37-1.08-.58-1.61-.19-.45-.4-.66-.98-.38-1.32.58-1.86.33-2.09-1.04-.19-1.17-.85-1.99-1.63-2.68-1.79-1.59-3.63-3.13-5.55-4.57-.58-.43-1.49-.44-2.24-.64-.14-.03-.27-.04-.39-.05-.51-.08-1.15,0-1.45-.29-.23-.23.14-.97-.03-1.37-.38-.91-.94-1.73-1.41-2.6-1.01-1.85-2.8-2.04-4.62-2.26-1.07-.14-2.14-.33-3.2-.55-.41-.08-.61-.38-.36-.83.23-.42.42-.84.67-1.24.36-.59.16-.93-.34-1.28-1.16-.78-2.36-1.52-3.43-2.41-1.05-.9-1.96-1.99-2.95-2.98-.11-.11-.31-.22-.4-.19-.12.06-.26.3-.22.4.13.38.34.76.5,1.12.2.4.51.79.57,1.19.16,1.07-.21,1.31-1.27,1.52-2.12.41-3.95,1.42-5.05,3.37-.19.33-.11.98.11,1.33.71,1.15.07,3.07-1.24,3.26-.49.09-1.02-.16-1.53-.27-.39-.08-.77-.17-1.19-.29-.1-.05-.15-.04-.2-.06.05.03.1.06.16.09m1.32-6.47c.58-.73,1.18-1.45,1.71-2.23.76-1.11,1.54-2.24,2.16-3.43.48-.9,1.57-1.6,1.09-2.88-.04-.1.11-.27.18-.41,1.2-1.89,2.37-3.78,3.58-5.65,1.86-2.88,3.8-5.73,5.61-8.64.44-.71.86-.81,1.5-.52,2.39,1.09,5.21.04,6.57-2.19,1.31-2.11.89-5.1-.95-6.74-.39-.34-.55-.7-.27-1.14.33-.52.8-.98,1.03-1.53.28-.65.76-.64,1.19-.52,1.88.54,3.46.15,5.01-1.06,2.35-1.81,2.6-5.73.5-7.81-.42-.4-.49-.74-.14-1.28,1.52-2.31,3-4.65,4.47-6.99.19-.31.1-.8.15-1.2-.26.23-.59.41-.78.69-1.57,2.33-3.14,4.64-4.64,7.02-.32.5-.63.6-1.03.43-.91-.4-1.84-.44-2.81-.33-1.96.22-3.35,1.31-4.14,3-.77,1.65-.74,3.42.22,5.08.38.66,1.14,1.28,1.13,1.92-.02.66-.82,1.27-1.16,1.94-.29.6-.63.63-1.23.49-1.86-.46-3.47.13-4.87,1.36-1.95,1.72-2.25,5.21-.51,7.33.21.24.26.85.1,1.16-.36.72-.92,1.37-1.36,2.07-2.71,4.32-5.43,8.62-8.14,12.95-.16.24-.32.69-.22.87.27.49.05.77-.19,1.16-1.18,1.91-2.36,3.83-3.49,5.77-.24.4-.26.91-.46,1.35-.08.05-.23.09-.23.16-.01.1.06.22.1.33.12-.06.25-.1.31-.2.05-.05-.06-.2-.01-.3m-14.7,9.16c-1.05,1.11-1.77,2.37-2.09,3.87-.56,2.62.2,4.87,2.03,6.71,2.1,2.12,4.69,2.73,7.48,1.8,2.18-.72,3.77-2.17,4.58-4.42.56-1.51.75-2.98.26-4.46-.31-.98-.91-1.88-1.44-2.75-.25-.41-.56-.4-.86.1-1.03,1.8-2.12,3.58-3.22,5.37-.47.75-.76.71-1.88-.1-.56-.41-.19-.85.03-1.22,1.09-1.75,2.24-3.49,3.31-5.26.21-.31.47-.85-.16-1.07-1.42-.55-2.9-.7-4.42-.43-1.37.26-2.47.98-3.63,1.86m13.84-7.52c-.11-.11-.2-.24-.3-.37-.06.07-.11.12-.18.19.14.1.26.17.48.18m3.87-15.69s.07.05.1.06c0-.05-.02-.1-.1-.06"/>
      </g>
      <circle class="cls-1" cx="97.27" cy="97.27" r="93.27"/>
    </g>
  </g>
</svg>