<?xml version="1.0" encoding="UTF-8" standalone="no"?>
<!-- Created with Inkscape (http://www.org/) -->

<svg
   width="2560"
   height="1440"
   viewBox="0 0 2560 1440"
   version="1.1"
   id="svg5"
   version="1.2 (dc2aedaf03, 2022-05-15)"
   docname="background.svg"
   export-filename="background2.svg"
   export-xdpi="96"
   export-ydpi="96">
  <namedview
     id="namedview7"
     pagecolor="#ffffff"
     bordercolor="#000000"
     borderopacity="0.25"
     showpageshadow="2"
     pageopacity="0.0"
     pagecheckerboard="0"
     deskcolor="#d1d1d1"
     document-units="px"
     showgrid="false"
     zoom="0.18576389"
     cx="1087.4019"
     cy="333.75701"
     window-width="1366"
     window-height="715"
     window-x="-8"
     window-y="22"
     window-maximized="1"
     current-layer="layer1" />
  <defs
     id="defs2">
    <linearGradient
       collect="always"
       id="linearGradient3639">
      <stop
         style="stop-color:#b21ae1;stop-opacity:0.06441718;"
         offset="0"
         id="stop3635" />
      <stop
         style="stop-color:#ebc1f8;stop-opacity:0;"
         offset="1"
         id="stop3637" />
    </linearGradient>
    <linearGradient
       collect="always"
       id="linearGradient3324">
      <stop
         style="stop-color:#676767;stop-opacity:1;"
         offset="0"
         id="stop3320" />
      <stop
         style="stop-color:#8a7912;stop-opacity:0.63803679;"
         offset="1"
         id="stop3322" />
    </linearGradient>
    <linearGradient
       collect="always"
       id="linearGradient3316">
      <stop
         style="stop-color:#b21ae1;stop-opacity:0.22699386;"
         offset="0"
         id="stop3312" />
      <stop
         style="stop-color:#b21ae1;stop-opacity:0;"
         offset="1"
         id="stop3314" />
    </linearGradient>
    <linearGradient
       id="linearGradient3285"
       swatch="solid">
      <stop
         style="stop-color:#b21ae1;stop-opacity:0.32941177;"
         offset="0"
         id="stop3283" />
    </linearGradient>
    <linearGradient
       collect="always"
       xlink:href="#linearGradient3639"
       id="linearGradient3318"
       x1="1476.1343"
       y1="353.40643"
       x2="2561.6194"
       y2="353.40643"
       gradientUnits="userSpaceOnUse"
       gradientTransform="matrix(-0.49239581,0.31974867,-0.50262728,-0.71940148,2553.4565,869.27979)" />
    <linearGradient
       collect="always"
       xlink:href="#linearGradient3324"
       id="linearGradient3326"
       x1="1318.974"
       y1="526.78033"
       x2="2766.147"
       y2="-54.602806"
       gradientUnits="userSpaceOnUse"
       gradientTransform="matrix(-0.49239581,0.31974867,-0.50262728,-0.71940148,2553.4565,869.27979)" />
    <linearGradient
       collect="always"
       xlink:href="#linearGradient3324"
       id="linearGradient3514"
       gradientUnits="userSpaceOnUse"
       gradientTransform="matrix(-0.36482189,7.7619669e-4,-0.00123746,-0.48035246,936.37914,1439.043)"
       x1="1318.974"
       y1="526.78033"
       x2="2766.147"
       y2="-54.602806" />
    <linearGradient
       collect="always"
       xlink:href="#linearGradient3316"
       id="linearGradient3516"
       gradientUnits="userSpaceOnUse"
       gradientTransform="matrix(-0.33620967,7.7338319e-4,-0.00114041,-0.47861309,898.12127,1437.8188)"
       x1="1476.1343"
       y1="353.40643"
       x2="2561.6194"
       y2="353.40643" />
    <linearGradient
       collect="always"
       xlink:href="#linearGradient3324"
       id="linearGradient1220"
       gradientUnits="userSpaceOnUse"
       gradientTransform="matrix(-0.49239581,0.31974867,-0.50262728,-0.71940148,3316.0582,874.11221)"
       x1="1318.974"
       y1="526.78033"
       x2="2766.147"
       y2="-54.602806" />
    <linearGradient
       collect="always"
       xlink:href="#linearGradient3639"
       id="linearGradient1222"
       gradientUnits="userSpaceOnUse"
       gradientTransform="matrix(-0.49239581,0.31974867,-0.50262728,-0.71940148,3316.0582,874.11221)"
       x1="1476.1343"
       y1="353.40643"
       x2="2561.6194"
       y2="353.40643" />
    <linearGradient
       collect="always"
       xlink:href="#linearGradient3324"
       id="linearGradient1257"
       gradientUnits="userSpaceOnUse"
       gradientTransform="matrix(-0.39542066,0.25549796,-0.40363708,-0.57484401,1647.5004,988.81356)"
       x1="1318.974"
       y1="526.78033"
       x2="2766.147"
       y2="-54.602806" />
    <linearGradient
       collect="always"
       xlink:href="#linearGradient3639"
       id="linearGradient1259"
       gradientUnits="userSpaceOnUse"
       gradientTransform="matrix(-0.39542066,0.25549796,-0.40363708,-0.57484401,1647.5004,988.81356)"
       x1="1476.1343"
       y1="353.40643"
       x2="2561.6194"
       y2="353.40643" />
  </defs>
  <g
     label="Layer 1"
     groupmode="layer"
     id="layer1">
    <rect
       style="fill:none;stroke:#f9f9f9;stroke-width:2.24882;stroke-linecap:round;stroke-miterlimit:6.6;paint-order:markers fill stroke"
       id="rect247"
       width="2557.0093"
       height="1431.9253"
       x="0"
       y="0" />
    <path
       style="fill:url(#linearGradient3326);fill-opacity:1;stroke-width:2.49332;stroke-linecap:round;stroke-miterlimit:6.6;paint-order:markers fill stroke"
       d="m 1037.6102,1439.6418 c 0,0 3.7197,-234.088 39.4128,-343.7653 5.6594,-17.3902 8.7709,-44.5761 27.0273,-47.7448 17.2733,-2.9979 43.6629,11.8376 56.1417,30.9912 12.8951,19.7926 4.1491,42.3636 3.7676,62.8042 -0.6928,37.1164 -15.7431,69.331 -10.9841,107.8956 1.5424,12.4983 3.2265,27.691 12.5602,37.9644 6.8301,7.5177 17.8267,11.7789 25.4929,10.3942 7.6027,-1.3731 10.2681,-10.7537 14.0213,-17.4059 8.5553,-15.1647 15.2459,-32.1502 18.965,-50.5899 16.0028,-79.3418 -13.7615,-181.1838 13.4758,-253.71707 8.654,-15.33985 29.8201,-33.89854 45.6192,-32.79998 74.1997,16.67943 48.3178,140.81995 46.4572,192.43675 -2.0265,48.3583 -30.9055,89.6888 -15.9283,141.0794 3.4168,11.7239 12.3852,23.8379 22.2215,31.5941 12.274,9.6784 29.1959,18.4731 40.3099,14.2263 10.5436,-4.0288 10.2655,-21.0975 13.0792,-33.1071 5.7477,-24.5326 -1.9686,-56.245 7.4931,-78.3902 4.2001,-9.8301 10.7007,-19.6579 20.922,-21.9562 10.3284,-2.3223 24.1647,1.5204 35.0086,9.5612 8.2332,6.1046 15.0282,16.3885 18.2998,26.0184 6.777,19.9474 1.7703,38.8656 -0.1539,57.2288 -2.0982,20.0241 -16.8418,35.366 -12.3565,57.1139 2.8511,13.8231 10.9817,31.947 23.3826,38.9897 12.2928,6.981 26.9526,2.3874 34.0665,-6.1402 97.5132,-168.3714 -88.7414,-595.71516 47.1637,-695.73277 76.0381,31.84289 43.4916,261.39018 59.5882,350.58877 19.7149,121.4669 -48.416,222.6356 -15.8864,345.0781 2.9549,11.1221 8.4593,25.0569 18.1542,31.556 5.3776,3.6049 11.4356,1.6571 16.2698,0.1533 11.9033,-3.7029 22.6602,-11.0703 29.0572,-21.8794 14.3511,-24.2496 13.9814,-59.0304 17.3007,-90.2975 -3.7863,-36.7592 8.3956,-108.598 51.7495,-99.8861 47.8337,26.0707 85.37,247.9447 49.1885,248.0108 -227.4988,0.4156 -339.3493,-0.4008 -470.4428,0.1853 z"
       id="path478"
       nodetypes="caaaaaaaaacccaaaaaaaaaaacccaaaaccscc"
       export-filename="background2.webp"
       export-xdpi="96"
       export-ydpi="96" />
    <path
       style="fill:url(#linearGradient3318);fill-opacity:1;stroke-width:2.52207;stroke-linecap:round;stroke-miterlimit:6.6;paint-order:markers fill stroke"
       d="m 1064.0943,1361.3949 c 0,0 -0.3054,-167.2811 19.5713,-239.1416 4.9912,-18.0445 7.784,-42.3895 24.598,-46.6466 13.9893,-3.5421 39.6312,3.1717 49.822,21.0136 11.5023,20.138 -10.8324,33.0272 -13.3937,51.2851 -5.0495,35.9936 -16.469,72.372 -3.7311,113.705 5.5384,17.9715 17.8686,37.3741 32.4129,50.4738 7.8041,7.0289 18.284,12.9414 25.8386,11.8537 7.4918,-1.0782 9.6931,-10.6354 13.1059,-17.3301 7.7796,-15.2615 13.0723,-32.8372 16.4338,-51.3383 42.8896,-43.6778 -20.8191,-272.90461 45.0461,-292.9016 74.5567,20.5012 33.9869,136.9612 34.6051,190.1186 0.2976,49.7891 -23.9206,93.5934 -2.4071,146.0992 6.976,17.026 23.0854,32.0098 37.6951,42.7188 12.9811,9.5153 29.9058,20.3513 40.7508,16.4649 10.2885,-3.687 9.196,-21.3048 11.4187,-33.5671 4.5406,-25.0486 -4.6458,-58.1014 3.7009,-80.5226 3.7051,-9.9525 9.6974,-19.8005 19.7482,-21.7171 10.156,-1.9362 24.0938,2.6424 35.2579,11.4176 21.8472,28.856 -6.6497,47.1114 -9.5125,67.739 0.5834,29.617 18.3891,99.5897 47.0861,118.5484 12.5536,7.7469 26.9068,3.6603 33.5707,-4.8194 14.1203,-47.3706 26.9864,-122.3719 21.0333,-175.1997 -11.5168,-119.746 -25.1666,-504.84354 21.172,-492.6874 55.9403,14.67508 35.7781,302.1813 39.4464,320.3978 15.0699,74.8379 -17.1766,116.3009 -24.716,184.3563 0.8688,27.0941 13.9507,161.3675 47.297,168.9382 48.4664,-5.9441 60.1304,-29.0261 62.5459,-81.2442 -5.5212,-38.0834 3.1538,-111.6401 46.6669,-100.7276 60.4498,54.5172 37.5992,153.4767 8.9836,153.6154 l -432.3224,24.2951 z"
       id="path478-3"
       nodetypes="caaaaaaaacccaaaaaacccccssccccccc"
       export-filename="background2.webp"
       export-xdpi="96"
       export-ydpi="96" />
    <path
       style="fill:url(#linearGradient1220);fill-opacity:1;stroke-width:2.49332;stroke-linecap:round;stroke-miterlimit:6.6;paint-order:markers fill stroke"
       d="m 1800.2119,1444.4742 c 0,0 3.7197,-234.088 39.4128,-343.7653 5.6594,-17.3902 8.7709,-44.5761 27.0273,-47.7448 17.2733,-2.9979 43.6629,11.8376 56.1417,30.9912 12.8951,19.7926 4.1491,42.3636 3.7676,62.8042 -0.6928,37.1164 -15.7431,69.331 -10.9841,107.8956 1.5424,12.4983 3.2265,27.691 12.5602,37.9644 6.8301,7.5177 17.8267,11.7789 25.4929,10.3942 7.6027,-1.3731 10.2681,-10.7537 14.0213,-17.4059 8.5553,-15.1647 15.2459,-32.1502 18.965,-50.5899 16.0028,-79.3418 -13.7615,-181.1838 13.4758,-253.71709 8.654,-15.3398 29.8201,-33.8985 45.6192,-32.8 74.1997,16.6795 48.3178,140.81999 46.4572,192.43679 -2.0265,48.3583 -30.9055,89.6888 -15.9283,141.0794 3.4168,11.7239 12.3852,23.8379 22.2215,31.5941 12.274,9.6784 29.1959,18.4731 40.3099,14.2263 10.5436,-4.0288 10.2655,-21.0975 13.0792,-33.1071 5.7477,-24.5326 -1.9686,-56.245 7.4931,-78.3902 4.2001,-9.8301 10.7007,-19.6579 20.922,-21.9562 10.3284,-2.3223 24.1647,1.5204 35.0086,9.5612 8.2332,6.1046 15.0282,16.3885 18.2998,26.0184 6.777,19.9474 1.7703,38.8656 -0.1539,57.2288 -2.0982,20.0241 -16.8418,35.366 -12.3565,57.1139 2.8511,13.8231 10.9817,31.947 23.3826,38.9897 12.2928,6.981 26.9526,2.3874 34.0665,-6.1402 97.5132,-168.3714 -88.7414,-595.71519 47.1637,-695.73279 76.0381,31.8429 43.4916,261.3902 59.5882,350.58879 19.7149,121.4669 -48.416,222.6356 -15.8864,345.0781 2.9549,11.1221 8.4593,25.0569 18.1542,31.556 5.3776,3.6049 11.4356,1.6571 16.2698,0.1533 11.9033,-3.7029 22.6602,-11.0703 29.0572,-21.8794 14.3511,-24.2496 13.9814,-59.0304 17.3007,-90.2975 -3.7863,-36.7592 8.3956,-108.598 51.7495,-99.8861 47.8337,26.0707 85.37,247.9447 49.1885,248.0108 -227.4988,0.4156 -339.3493,-0.4008 -470.4428,0.1853 z"
       id="path478-7"
       nodetypes="caaaaaaaaacccaaaaaaaaaaacccaaaaccscc"
       export-filename="background2.webp"
       export-xdpi="96"
       export-ydpi="96" />
    <path
       style="fill:url(#linearGradient1222);fill-opacity:1;stroke-width:2.52207;stroke-linecap:round;stroke-miterlimit:6.6;paint-order:markers fill stroke"
       d="m 1826.696,1366.2273 c 0,0 -0.3054,-167.2811 19.5713,-239.1416 4.9912,-18.0445 7.784,-42.3895 24.598,-46.6466 13.9893,-3.5421 39.6312,3.1717 49.822,21.0136 11.5023,20.138 -10.8324,33.0272 -13.3937,51.2851 -5.0495,35.9936 -16.469,72.372 -3.7311,113.705 5.5384,17.9715 17.8686,37.3741 32.4129,50.4738 7.8041,7.0289 18.284,12.9414 25.8386,11.8537 7.4918,-1.0782 9.6931,-10.6354 13.1059,-17.3301 7.7796,-15.2615 13.0723,-32.8372 16.4338,-51.3383 42.8896,-43.6778 -20.8191,-272.90459 45.0461,-292.90159 74.5567,20.5012 33.9869,136.96119 34.6051,190.11859 0.2976,49.7891 -23.9206,93.5934 -2.4071,146.0992 6.976,17.026 23.0854,32.0098 37.6951,42.7188 12.9811,9.5153 29.9058,20.3513 40.7508,16.4649 10.2885,-3.687 9.196,-21.3048 11.4187,-33.5671 4.5406,-25.0486 -4.6458,-58.1014 3.7009,-80.5226 3.7051,-9.9525 9.6974,-19.8005 19.7482,-21.7171 10.156,-1.9362 24.0938,2.6424 35.2579,11.4176 21.8472,28.856 -6.6497,47.1114 -9.5125,67.739 0.5834,29.617 18.3891,99.5897 47.0861,118.5484 12.5536,7.7469 26.9068,3.6603 33.5707,-4.8194 14.1203,-47.3706 26.9864,-122.3719 21.0333,-175.1997 -11.5168,-119.746 -25.1666,-504.84359 21.172,-492.68739 55.9403,14.6751 35.7781,302.18129 39.4464,320.39779 15.0699,74.8379 -17.1766,116.3009 -24.716,184.3563 0.8688,27.0941 13.9507,161.3675 47.297,168.9382 48.4664,-5.9441 60.1304,-29.0261 62.5459,-81.2442 -5.5212,-38.0834 3.1538,-111.6401 46.6669,-100.7276 60.4498,54.5172 37.5992,153.4767 8.9836,153.6154 l -432.3224,24.2951 z"
       id="path478-3-7"
       nodetypes="caaaaaaaacccaaaaaacccccssccccccc"
       export-filename="background2.webp"
       export-xdpi="96"
       export-ydpi="96" />
    <path
       style="fill:url(#linearGradient3514);fill-opacity:1;stroke-width:1.45452;stroke-linecap:round;stroke-miterlimit:6.6;paint-order:markers fill stroke"
       d="m -0.0750736,1214.9463 c 0,0 60.7970496,-80.6739 102.3995436,-110.425 9.00323,-6.4385 20.29757,-17.9018 30.74097,-13.9341 9.88108,3.7541 18.08611,18.4221 17.65796,30.9427 -0.44245,12.9383 -12.91745,20.7235 -20.3669,30.0144 -13.52663,16.8704 -32.642257,27.2189 -43.90009,46.3758 -3.648543,6.2086 -8.180982,13.6989 -7.062856,21.1992 0.818291,5.4886 4.919024,10.7171 9.323673,12.3583 4.368034,1.6277 9.057852,-1.896 13.334573,-3.8412 9.74917,-4.4344 19.19263,-10.2606 27.63551,-17.6391 36.32786,-31.7474 57.27985,-87.448 96.92579,-112.7243 9.86171,-4.4856 27.25245,-6.7338 34.92712,-1.5331 31.95483,29.7248 -25.31532,79.1472 -44.5845,102.3419 -18.19731,21.6462 -47.60705,32.079 -58.20124,60.1736 -2.41683,6.4093 -2.13848,14.6479 0.12962,21.1397 2.83022,8.1004 8.34649,17.1755 15.52677,18.5245 6.8118,1.2799 12.72772,-6.6556 18.42628,-11.3449 11.64076,-9.5787 18.9572,-26.4619 31.64648,-33.8385 5.63262,-3.2744 12.43886,-5.8641 18.47197,-3.8839 6.09622,2.0011 11.79497,7.881 14.4764,14.8029 2.03598,5.2554 1.85451,12.0062 0.10676,17.4089 -3.62035,11.1913 -12.89022,18.4073 -20.38978,26.2838 -8.17783,8.5891 -21.14856,11.266 -26.57764,22.6046 -3.45068,7.207 -5.73288,17.9617 -1.90244,24.8872 3.79703,6.8651 12.91036,9.1083 19.56814,7.2991 109.53183,-48.4842 164.21685,-244.8325 269.08588,-250.4593 27.51158,37.2475 -68.65825,77.5701 -92.09954,123.3919 -33.04676,61.7429 -103.7296,88.0408 -130.58144,154.0409 -2.43905,5.9952 -4.575,14.042 -1.933,19.9133 1.46557,3.2567 5.2491,4.1609 8.25043,4.9057 7.39007,1.8338 15.49568,1.6411 22.59726,-1.4308 15.93184,-6.8917 28.08727,-23.0035 40.87866,-36.4023 11.1136,-18.0372 42.82821,-47.4683 61.86579,-30.576 15.1636,26.2099 -11.98001,52.9869 -27.72982,67.5998 -11.03647,10.3778 -35.80217,26.4118 -35.80217,26.4118 l -342.88950255,1.2689 z"
       id="path478-31"
       nodetypes="caaaaaaaaacccaaaaaaaaaaacccaaaacccccc"
       export-filename="background2.webp"
       export-xdpi="96"
       export-ydpi="96" />
    <path
       style="fill:url(#linearGradient3516);fill-opacity:1;stroke-width:1.40986;stroke-linecap:round;stroke-miterlimit:6.6;paint-order:markers fill stroke"
       d="m 36.553041,1222.3964 c 0,0 54.570165,-76.7738 87.424259,-103.8296 8.24988,-6.794 17.52629,-17.1269 26.82813,-14.0997 7.7392,2.5187 17.60546,13.1891 16.56362,24.3856 -1.17592,12.6374 -15.89804,11.9324 -23.07465,19.5436 -14.14805,15.0046 -31.4184,28.2994 -38.94547,51.0187 -3.27272,9.8783 -3.81867,22.4237 -1.26152,32.7354 1.3721,5.533 4.3681,11.3466 8.27763,13.0849 3.8769,1.7242 8.03831,-2.0051 11.83337,-4.0635 8.65131,-4.6925 16.88965,-11.1821 24.5222,-18.6678 34.46163,-7.3223 79.46735,-131.2669 116.99147,-120.9305 28.36662,31.4749 -28.80917,72.8482 -45.90491,97.3992 -16.1449,22.9119 -41.86467,35.821 -48.91803,66.2605 -2.28723,9.8706 0.38989,21.5094 3.75974,30.7446 2.99419,8.2057 7.4115,18.1846 13.78429,19.6143 6.04573,1.3564 11.29419,-7.0433 16.35048,-12.0064 10.32876,-10.1379 16.81817,-28.0098 28.07798,-35.8164 4.99819,-3.4652 11.03806,-6.2053 16.39291,-4.1076 5.4108,2.1197 10.46972,8.3455 12.85117,15.674 0.83904,19.697 -18.53713,19.6274 -26.6306,28.2355 -9.41263,13.7495 -23.92317,51.098 -16.62479,68.2864 3.37154,7.2685 11.46003,9.6452 17.36828,7.7313 22.13609,-17.534 52.71966,-48.1056 67.19807,-74.0852 33.74856,-58.303 121.56085,-173.0745 139.38292,-153.7807 21.51494,23.2915 -50.28296,83.3142 -54.51558,92.7511 -17.38874,38.7688 -46.11934,48.2274 -71.92531,77.1922 -8.45316,12.6774 -46.21712,78.1033 -33.00689,91.4479 24.74314,11.6265 37.77955,4.4993 55.99522,-18.7228 9.85901,-19.0927 37.9985,-50.243 54.89822,-32.356 10.6048,42.8909 -23.41204,50.5515 -46.01812,73.079 l -311.658087,-1.5381 z"
       id="path478-3-3"
       nodetypes="caaaaaaaacccaaaaaacccccssccccccc"
       export-filename="background2.webp"
       export-xdpi="96"
       export-ydpi="96" />
    <path
       style="fill:url(#linearGradient1257);fill-opacity:1;stroke-width:1.99728;stroke-linecap:round;stroke-miterlimit:6.6;paint-order:markers fill stroke"
       d="m 430.19318,1444.5663 c 0,0 2.98712,-187.05 31.65063,-274.6886 4.5448,-13.8958 7.04351,-35.6189 21.70439,-38.1509 13.8714,-2.3955 35.06369,9.4589 45.08484,24.7638 10.35547,15.8154 3.33196,33.851 3.02559,50.1842 -0.55635,29.6582 -12.64257,55.3995 -8.82083,86.2149 1.23863,9.9869 2.59106,22.1268 10.08653,30.3358 5.48494,6.0071 14.31581,9.412 20.47218,8.3056 6.10538,-1.0972 8.24585,-8.5928 11.25987,-13.9083 6.87037,-12.1175 12.24329,-25.6899 15.22993,-40.4243 12.85112,-63.3988 -11.05124,-144.7765 10.8218,-202.7349 6.94963,-12.2575 23.94716,-27.0869 36.6347,-26.2091 59.5864,13.3278 38.80183,112.5234 37.30766,153.7683 -1.62739,38.6411 -24.8188,71.6666 -12.79129,112.7307 2.74388,9.3681 9.94599,19.0479 17.84508,25.2455 9.85669,7.7336 23.44589,14.7611 32.37104,11.3677 8.46709,-3.2193 8.24376,-16.8582 10.50331,-26.4545 4.61572,-19.603 -1.58089,-44.9431 6.01737,-62.6384 3.37291,-7.8548 8.59324,-15.7078 16.8015,-17.5443 8.29427,-1.8557 19.40557,1.2149 28.11382,7.64 6.6117,4.8779 12.06846,13.0953 14.69573,20.7902 5.4423,15.9391 1.42165,31.0559 -0.12359,45.7292 -1.68497,16.0004 -13.52488,28.2595 -9.92294,45.6373 2.28959,11.0455 8.8189,25.5275 18.7775,31.1551 9.87179,5.5782 21.64441,1.9077 27.35726,-4.9064 78.30841,-134.5386 -71.26418,-476.01147 37.87502,-555.93141 61.06273,25.44434 34.92612,208.86621 47.85257,280.14111 15.83214,97.0592 -38.88069,177.8989 -12.75765,275.7376 2.37295,8.8873 6.79328,20.022 14.57881,25.2151 4.31851,2.8806 9.18341,1.3242 13.06554,0.1225 9.559,-2.9588 18.19737,-8.8458 23.33451,-17.4829 11.52472,-19.3768 11.22783,-47.1687 13.89341,-72.153 -3.04061,-29.3728 6.74212,-86.7762 41.55767,-79.8149 38.41306,20.8321 68.55686,198.1224 39.50106,198.1752 -182.69395,0.3321 -272.51599,-0.3202 -377.79121,0.1481 z"
       id="path478-4"
       nodetypes="caaaaaaaaacccaaaaaaaaaaacccaaaaccscc"
       export-filename="background2.webp"
       export-xdpi="96"
       export-ydpi="96" />
    <path
       style="fill:url(#linearGradient1259);fill-opacity:1;stroke-width:2.02031;stroke-linecap:round;stroke-miterlimit:6.6;paint-order:markers fill stroke"
       d="m 451.46136,1382.0425 c 0,0 -0.24526,-133.6675 15.71682,-191.0882 4.0082,-14.4186 6.25097,-33.8717 19.75353,-37.2734 11.23417,-2.8303 31.82601,2.5344 40.00978,16.7911 9.23697,16.0915 -8.69901,26.3907 -10.75587,40.9798 -4.05502,28.761 -13.22551,57.8295 -2.99628,90.857 4.44764,14.3603 14.34946,29.8641 26.02933,40.3315 6.26711,5.6165 14.68304,10.341 20.7498,9.4718 6.01632,-0.8615 7.78409,-8.4983 10.52475,-13.8477 6.24744,-12.1949 10.49777,-26.2389 13.19724,-41.0224 34.44268,-34.9011 -16.71887,-218.0668 36.17447,-234.0455 59.87309,16.3816 27.29333,109.44 27.78978,151.9159 0.23899,39.7844 -19.20955,74.7866 -1.93303,116.7418 5.6021,13.6048 18.53883,25.5777 30.27122,34.1349 10.42453,7.6032 24.01598,16.2618 32.72511,13.1564 8.26222,-2.9462 7.38489,-17.0238 9.16984,-26.8221 3.64634,-20.0153 -3.73084,-46.4264 2.97202,-64.3423 2.9754,-7.9526 7.78754,-15.8218 15.85888,-17.3532 8.15582,-1.5472 19.34863,2.1114 28.31401,9.1233 17.5445,23.0576 -5.34007,37.6448 -7.63905,54.1274 0.4685,23.6658 14.76745,79.5781 37.8127,94.7272 10.08123,6.1902 21.60763,2.9248 26.9591,-3.851 11.33937,-37.8519 21.67155,-97.7823 16.89089,-139.9949 -9.24862,-95.684 -20.21015,-403.39966 17.00227,-393.68619 44.9231,11.72625 28.73176,241.46069 31.6776,256.01669 12.10195,59.7999 -13.79374,92.9313 -19.84829,147.3115 0.69769,21.6498 11.20317,128.9422 37.98207,134.9916 38.92116,-4.7497 48.28798,-23.1936 50.22776,-64.9189 -4.43382,-30.4309 2.53267,-89.207 37.47606,-80.4873 48.54453,43.5625 30.19423,122.6369 7.21433,122.7478 l -347.17844,19.4132 z"
       id="path478-3-2"
       nodetypes="caaaaaaaacccaaaaaacccccssccccccc"
       export-filename="background2.webp"
       export-xdpi="96"
       export-ydpi="96" />
  </g>
</svg>
