<?xml version="1.0" encoding="UTF-8" standalone="no"?>
<svg
   data-name="Layer 1"
   width="872.69856"
   height="590.1815"
   viewBox="0 0 872.69856 590.1815"
   version="1.1"
   id="svg166"
   sodipodi:docname="undraw_team_spirit_re_yl1v.svg"
   inkscape:version="1.2 (dc2aedaf03, 2022-05-15)"
   inkscape:export-filename="undraw_team_spirit_re_yl1v.svg"
   inkscape:export-xdpi="103.08968"
   inkscape:export-ydpi="103.08968"
   xmlns:inkscape="http://www.inkscape.org/namespaces/inkscape"
   xmlns:sodipodi="http://sodipodi.sourceforge.net/DTD/sodipodi-0.dtd"
   xmlns="http://www.w3.org/2000/svg"
   xmlns:svg="http://www.w3.org/2000/svg">
  <defs
     id="defs170" />
  <sodipodi:namedview
     id="namedview168"
     pagecolor="#ffffff"
     bordercolor="#000000"
     borderopacity="0.25"
     inkscape:showpageshadow="2"
     inkscape:pageopacity="0.0"
     inkscape:pagecheckerboard="0"
     inkscape:deskcolor="#d1d1d1"
     showgrid="false"
     inkscape:zoom="0.90650077"
     inkscape:cx="300.0549"
     inkscape:cy="223.93803"
     inkscape:window-width="1366"
     inkscape:window-height="715"
     inkscape:window-x="-8"
     inkscape:window-y="22"
     inkscape:window-maximized="1"
     inkscape:current-layer="svg166" />
  <text
     xml:space="preserve"
     style="font-size:189.96px;font-family:'Ink Free';-inkscape-font-specification:'Ink Free, Normal';text-align:center;text-anchor:middle;fill:#722be3;fill-opacity:1;stroke:none;stroke-width:1.64198;stroke-linecap:round;stroke-miterlimit:6.6;paint-order:markers fill stroke"
     x="270.38852"
     y="233.2088"
     id="text2974-5"
     transform="matrix(0.89626613,-0.3288918,0.27436599,1.0150593,0,0)"><tspan
       sodipodi:role="line"
       id="tspan2972-2"
       x="270.38852"
       y="233.2088"
       style="font-style:normal;font-variant:normal;font-weight:normal;font-stretch:normal;font-size:54.4771px;font-family:'Ink Free';-inkscape-font-specification:'Ink Free, Normal';font-variant-ligatures:normal;font-variant-caps:normal;font-variant-numeric:normal;font-variant-east-asian:normal;stroke-width:1.64198">SWAP,</tspan></text>
  <path
     style="fill:#722be3;fill-opacity:1;stroke:none;stroke-width:2.90839;stroke-linecap:round;stroke-miterlimit:6.6;paint-order:markers fill stroke"
     d="M 8.8122966,441.96694 C 15.428041,401.43106 40.422318,349.96567 72.632357,348.6317 c 21.643498,21.74053 45.635223,58.76791 72.622823,62.22348 34.25103,3.25572 63.54364,-34.38309 96.83044,-45.25344 28.757,-9.39106 58.36871,-15.89177 88.02766,-16.97004 39.766,-1.44573 79.65449,5.30255 118.83736,14.1417 90.79194,17.45137 158.13635,127.89451 233.27332,135.76034 21.71129,0.95087 43.22091,-8.10278 63.82005,-16.97004 40.7941,-24.03646 89.89008,-28.76008 116.74726,22.45514 10.877,23.51558 8.69218,85.0218 8.69218,85.0218 L 4.2774189,589.21221 c 0,0 -2.7819544,-102.4137 4.5348777,-147.24527 z"
     id="path507"
     sodipodi:nodetypes="sccssccccccs" />
  <path
     d="m 110.43168,416.38495 c -1.14782,0 -2.29799,0.0538 -3.42121,0.16258 l -0.16346,0.0158 c -7.450398,0.74973 -12.900008,5.09916 -12.675878,10.11763 l 0.0433,0.9074 c 0.0286,0.57361 0.059,1.19034 0.0841,1.87448 0.0136,0.33747 0.41805,0.59641 0.92136,0.59641 H 278.48136 c 12.92084,-0.0893 25.79484,-0.20168 38.26228,-0.33407 a 65.11419,74.120342 0 0 0 7.00025,-0.41289 c 3.46475,-0.46678 5.86953,-1.39203 7.3525,-2.8287 h 4e-4 c 1.8441,-1.78151 1.90218,-4.02488 1.79071,-6.55952 -0.22717,-5.11794 -0.45247,-10.49451 -0.6773,-15.85477 -0.1986,-4.72413 -0.39628,-9.43563 -0.59394,-13.94637 -0.12225,-2.6769 -0.39392,-5.03975 -2.48815,-6.84558 -2.26986,-1.95301 -6.40961,-2.94292 -12.30443,-2.94292 -0.0712,0 -0.14192,0 -0.21406,3.1e-4 -18.47374,0.0748 -36.7784,7.30558 -45.54826,17.99282 -1.00988,1.23069 -1.9509,2.5482 -2.86099,3.82259 -1.34479,1.88252 -2.73501,3.82876 -4.39409,5.56932 a 20.651721,23.508125 0 0 1 -2.90268,2.5756 c -0.0712,0.0561 -0.1527,0.11607 -0.23888,0.17304 -0.19722,0.14626 -0.40329,0.28728 -0.60424,0.41289 a 20.986166,23.888829 0 0 1 -3.70177,1.91577 l -0.12975,0.0496 c -0.0977,0.0397 -0.20352,0.0794 -0.30939,0.11578 -0.74241,0.27125 -1.51363,0.50588 -2.28626,0.69554 -3.34299,0.83872 -7.1443,1.0398 -11.29784,0.59703 a 54.595892,62.147222 0 0 1 -11.23342,-2.60573 c -3.84629,-1.3837 -7.44642,-3.10887 -10.92804,-4.77707 -1.52933,-0.73312 -3.11113,-1.49087 -4.69081,-2.2089 -0.29696,-0.13518 -0.589,-0.26725 -0.8855,-0.39936 -1.92935,-0.85595 -3.67859,-1.56287 -5.34751,-2.16114 a 52.779442,60.079529 0 0 0 -12.74332,-2.68676 c -4.59457,-0.28634 -8.64341,0.25372 -12.03137,1.60141 a 20.662055,23.51989 0 0 0 -2.72141,1.33476 c -4.01278,2.37206 -6.48664,5.8729 -8.87877,9.25858 -2.97575,4.21115 -6.05292,8.56612 -12.12901,10.82365 -7.01126,2.60731 -17.24536,1.52411 -24.4859,-0.35963 -2.27644,-0.59241 -4.55005,-1.27379 -6.74896,-1.933 q -1.33213,-0.3995 -2.66614,-0.79346 c -1.74761,-0.51359 -3.17787,-0.90709 -4.50111,-1.23931 l -0.41851,-0.10594 c -0.2328,-0.0576 -0.46583,-0.11515 -0.70307,-0.16995 -1.57172,-0.37565 -3.03525,-0.67124 -4.47651,-0.90369 l -0.341,-0.0566 c -0.68362,-0.10253 -1.32277,-0.18783 -1.94994,-0.25956 l -0.25037,-0.0283 c -1.22838,-0.13301 -2.49962,-0.19953 -3.77321,-0.19953 z"
     fill="#f2f2f2"
     id="path2"
     style="stroke-width:0.295516" />
  <path
     d="m 299.93472,421.98584 c 5.15663,-5.28952 12.82668,-7.94914 19.26044,-4.98318 a 31.98186,36.405372 0 0 0 -14.37199,18.89689 c -1.02422,3.10198 -1.87969,6.67352 -4.39896,8.33425 -1.56753,1.03336 -3.51773,1.08386 -5.27528,0.58504 -1.75763,-0.4989 -3.36871,-1.49895 -4.95771,-2.48898 l -0.45208,-0.0117 c 2.02963,-7.5562 5.03895,-15.04289 10.19558,-20.3324 z"
     fill="#e6e6e6"
     id="path4"
     style="stroke-width:0.295516" />
  <path
     d="m 319.15918,417.16331 a 27.335873,31.116784 0 0 0 -15.20798,8.17565 11.771818,13.400015 0 0 0 -2.3115,3.27167 6.7516385,7.6854785 0 0 0 -0.78039,3.94608 c 0.0278,1.27957 0.1865,2.58474 -0.0594,3.84969 a 4.1340374,4.7058292 0 0 1 -2.05645,3.05476 c -1.25912,0.82384 -2.7032,1.08357 -4.12314,1.28167 -1.57657,0.21999 -3.2172,0.42004 -4.58192,1.42665 -0.16535,0.12194 -0.32193,-0.17723 -0.15684,-0.29901 2.37439,-1.75133 5.37889,-1.11408 7.93198,-2.28293 1.19131,-0.54539 2.24545,-1.50276 2.61858,-2.95023 0.32626,-1.26575 0.16365,-2.61181 0.12562,-3.90708 a 7.2045467,8.2010295 0 0 1 0.63679,-3.8908 10.882717,12.38794 0 0 1 2.19247,-3.36076 26.520559,30.1887 0 0 1 6.73986,-5.49229 27.820637,31.668597 0 0 1 9.02948,-3.17137 c 0.19478,-0.0285 0.19634,0.3199 0.003,0.34829 z"
     fill="#ffffff"
     id="path6"
     style="stroke-width:0.295516" />
  <path
     d="m 305.22536,423.8071 a 4.101254,4.6685113 0 0 1 0.45216,-6.02329 c 0.14022,-0.15725 0.36147,0.0835 0.22104,0.24087 a 3.7976665,4.3229336 0 0 0 -0.41052,5.60388 c 0.11498,0.18192 -0.14835,0.35939 -0.26268,0.17855 z"
     fill="#ffffff"
     id="path8"
     style="stroke-width:0.295516" />
  <path
     d="m 300.77013,431.91004 a 7.9048168,8.9981578 0 0 0 5.64868,-1.28749 c 0.16573,-0.12128 0.32238,0.17788 0.15684,0.29903 a 8.2222283,9.3594713 0 0 1 -5.88037,1.32613 c -0.19412,-0.0399 -0.11822,-0.37727 0.0748,-0.33767 z"
     fill="#ffffff"
     id="path10"
     style="stroke-width:0.295516" />
  <path
     d="m 312.98067,418.81178 a 2.3215059,2.6426005 0 0 0 1.73626,1.54317 c 0.19446,0.037 0.11837,0.3744 -0.0748,0.33768 a 2.6014393,2.9612524 0 0 1 -1.92412,-1.70232 0.15810892,0.17997747 0 0 1 0.0529,-0.23877 0.15374094,0.17500533 0 0 1 0.20976,0.0603 z"
     fill="#ffffff"
     id="path12"
     style="stroke-width:0.295516" />
  <path
     d="m 326.2798,442.51116 c -0.12201,-0.0192 -0.24402,-0.0383 -0.36781,-0.0553 a 30.572769,34.801384 0 0 0 -4.95299,-0.28642 c -0.12801,0.002 -0.25774,0.006 -0.38543,0.0128 a 32.230755,36.68869 0 0 0 -11.564,3.02999 31.300161,35.629384 0 0 0 -4.19984,2.53983 c -1.85236,1.33507 -3.76748,2.95037 -5.83819,3.49487 a 5.3695044,6.1121774 0 0 1 -0.65429,0.13269 l -8.55554,-8.43266 c -0.0111,-0.0303 -0.0238,-0.0585 -0.0349,-0.0888 l -0.35513,-0.3189 c 0.0662,-0.0553 0.13576,-0.11114 0.20187,-0.16649 0.0382,-0.0324 0.0784,-0.0627 0.11661,-0.095 0.0261,-0.0208 0.0523,-0.0419 0.0747,-0.0624 0.009,-0.007 0.0173,-0.014 0.0244,-0.0187 0.0225,-0.0206 0.0453,-0.0371 0.0661,-0.0554 q 0.58262,-0.46963 1.17306,-0.93157 c 0.002,-0.002 0.002,-0.002 0.005,-0.003 a 46.022191,52.387665 0 0 1 9.5838,-5.86421 c 0.10163,-0.0438 0.20483,-0.0897 0.31035,-0.12957 a 29.867111,33.998126 0 0 1 4.69183,-1.50283 26.404237,30.056291 0 0 1 2.64594,-0.4207 21.956818,24.993736 0 0 1 6.84789,0.55227 c 4.4714,1.18022 8.56141,3.97513 10.9839,8.33393 0.062,0.11155 0.12203,0.22133 0.18223,0.33509 z"
     fill="#e6e6e6"
     id="path14"
     style="stroke-width:0.295516" />
  <path
     d="m 326.16654,442.61581 a 27.335876,31.116787 0 0 0 -16.46694,-3.89488 11.771715,13.399899 0 0 0 -3.57603,1.02808 6.7516247,7.685463 0 0 0 -2.71025,2.61586 c -0.65453,1.04074 -1.21817,2.1916 -2.08357,3.03312 a 4.1340346,4.7058259 0 0 1 -3.25766,1.02965 c -1.44107,-0.20513 -2.73146,-0.98744 -3.96998,-1.8024 -1.37516,-0.90486 -2.79092,-1.86951 -4.41297,-2.00109 -0.19655,-0.0159 -0.16332,-0.36217 0.033,-0.34624 2.82209,0.22893 4.884,2.79686 7.54069,3.61334 1.23967,0.38099 2.58772,0.33902 3.6512,-0.56098 0.92997,-0.78703 1.51209,-1.97321 2.16684,-3.0335 a 7.2044959,8.2009733 0 0 1 2.5663,-2.67017 10.882754,12.387983 0 0 1 3.52812,-1.18078 26.520753,30.18892 0 0 1 8.28634,0.23382 27.820676,31.668639 0 0 1 8.88694,3.65614 c 0.17061,0.11067 -0.0125,0.38997 -0.18196,0.28004 z"
     fill="#ffffff"
     id="path16"
     style="stroke-width:0.295516" />
  <path
     d="m 311.52719,438.37104 a 4.101254,4.6685113 0 0 1 3.5468,-4.49938 c 0.19512,-0.0295 0.24449,0.31435 0.0491,0.34382 a 3.7976665,4.3229336 0 0 0 -3.29176,4.19307 c -0.004,0.22401 -0.30853,0.18527 -0.30415,-0.0375 z"
     fill="#ffffff"
     id="path18"
     style="stroke-width:0.295516" />
  <path
     d="m 303.68416,441.78742 a 7.904832,8.9981733 0 0 0 5.19114,2.8433 c 0.19648,0.0166 0.16331,0.36295 -0.033,0.34624 a 8.2222184,9.359459 0 0 1 -5.39655,-2.97122 c -0.13395,-0.16482 0.10514,-0.38225 0.23835,-0.21832 z"
     fill="#ffffff"
     id="path20"
     style="stroke-width:0.295516" />
  <path
     d="m 320.36144,439.69759 a 2.3215059,2.6426005 0 0 0 0.57012,2.42208 c 0.13572,0.16281 -0.10352,0.38007 -0.23836,0.21832 a 2.6014476,2.961262 0 0 1 -0.63592,-2.67787 0.15810616,0.1799743 0 0 1 0.16854,-0.15439 0.15374094,0.17500533 0 0 1 0.13562,0.19186 z"
     fill="#ffffff"
     id="path22"
     style="stroke-width:0.295516" />
  <path
     d="m 164.94496,427.24647 c 4.22244,-7.29027 11.77578,-12.56377 19.38176,-11.42901 a 35.343802,40.232315 0 0 0 -10.75293,24.76211 c -0.33737,3.64203 -0.37945,7.73281 -2.66799,10.3068 -1.42397,1.60162 -3.49745,2.27323 -5.4991,2.29627 -2.00176,0.023 -3.96928,-0.53635 -5.91072,-1.09203 l -0.48636,0.13073 c 0.32407,-8.72435 1.7129,-17.68457 5.93534,-24.97487 z"
     fill="#e6e6e6"
     id="path24"
     style="stroke-width:0.295516" />
  <path
     d="m 184.32752,416.00068 a 30.209427,34.387787 0 0 0 -14.26731,13.56015 13.009113,14.808444 0 0 0 -1.67264,4.23115 7.4613736,8.4933808 0 0 0 0.12976,4.46759 c 0.3425,1.35969 0.83116,2.70537 0.87734,4.13619 a 4.568609,5.2005079 0 0 1 -1.45286,3.91837 c -1.14533,1.27987 -2.62634,2.01496 -4.09658,2.6765 -1.63243,0.73452 -3.33825,1.46806 -4.55185,2.97682 -0.14704,0.18281 -0.38763,-0.0876 -0.24081,-0.27012 2.11146,-2.62502 5.4806,-2.89494 7.92554,-4.95354 1.14086,-0.96057 2.03431,-2.31836 2.07962,-3.98463 0.0397,-1.45707 -0.46327,-2.84523 -0.82051,-4.21854 a 7.9618534,9.0630829 0 0 1 -0.26986,-4.36297 12.026729,13.690183 0 0 1 1.52356,-4.28875 29.30852,33.362272 0 0 1 5.86618,-8.00854 30.745221,34.997689 0 0 1 8.88224,-6.25132 c 0.20133,-0.0923 0.28818,0.27999 0.0882,0.37161 z"
     fill="#ffffff"
     id="path26"
     style="stroke-width:0.295516" />
  <path
     d="m 171.04857,427.51896 a 4.5323747,5.1592616 0 0 1 -0.98849,-6.58528 c 0.11155,-0.21258 0.407,-0.0252 0.2953,0.1876 a 4.1968816,4.7773654 0 0 0 0.9305,6.12355 c 0.16742,0.15811 -0.0708,0.43134 -0.23731,0.2741 z"
     fill="#ffffff"
     id="path28"
     style="stroke-width:0.295516" />
  <path
     d="m 168.26389,437.59618 a 8.7357931,9.9440678 0 0 0 5.72679,-3.16582 c 0.14761,-0.1822 0.38825,0.0881 0.24082,0.27014 a 9.0865251,10.343311 0 0 1 -5.96513,3.28053 c -0.21734,0.0189 -0.21863,-0.36606 -0.003,-0.38485 z"
     fill="#ffffff"
     id="path30"
     style="stroke-width:0.295516" />
  <path
     d="m 178.12226,419.72035 a 2.5655453,2.9203939 0 0 0 2.23415,1.10064 c 0.21704,-0.0221 0.2181,0.36296 0.002,0.38483 a 2.8749024,3.2725391 0 0 1 -2.47394,-1.21133 0.174725,0.19889176 0 0 1 -0.002,-0.27213 0.16990277,0.19340256 0 0 1 0.23907,-0.002 z"
     fill="#ffffff"
     id="path32"
     style="stroke-width:0.295516" />
  <path
     d="m 198.13816,440.85603 c -0.13517,0.018 -0.27034,0.0362 -0.40691,0.0572 a 33.787024,38.460213 0 0 0 -5.36739,1.26219 c -0.1364,0.0426 -0.27407,0.0885 -0.40911,0.13574 a 35.618856,40.545411 0 0 0 -11.62753,6.90272 34.590082,39.374346 0 0 0 -3.87113,4.04641 c -1.65488,2.01451 -3.30839,4.34861 -5.39,5.5867 a 5.9340935,6.7548572 0 0 1 -0.66733,0.34912 l -11.21132,-6.30956 c -0.0191,-0.0289 -0.0397,-0.055 -0.059,-0.0839 l -0.45776,-0.22862 c 0.0572,-0.0801 0.11802,-0.16185 0.17521,-0.24202 0.0331,-0.0466 0.0685,-0.0918 0.10152,-0.13853 0.0228,-0.0305 0.0457,-0.0613 0.0648,-0.0904 0.007,-0.0107 0.0152,-0.0203 0.0215,-0.0277 0.0191,-0.0292 0.0393,-0.0538 0.0572,-0.0801 q 0.50836,-0.68679 1.02696,-1.36782 c 0.002,-0.003 0.002,-0.003 0.005,-0.006 2.64207,-3.45178 5.56051,-6.68284 8.81699,-9.30695 0.098,-0.0789 0.19715,-0.1608 0.30025,-0.23683 a 33.006943,37.572236 0 0 1 4.65077,-3.09313 29.180415,33.216451 0 0 1 2.72709,-1.28787 24.264831,27.620977 0 0 1 7.45902,-1.57793 c 5.07073,-0.15368 10.12821,1.54033 13.78438,5.43506 0.0935,0.0997 0.18461,0.19806 0.2768,0.30068 z"
     fill="#e6e6e6"
     id="path34"
     style="stroke-width:0.295516" />
  <path
     d="m 198.0426,441.00382 a 30.20944,34.387804 0 0 0 -18.5638,1.04902 13.009231,14.808579 0 0 0 -3.57342,2.23203 7.4613544,8.4933596 0 0 0 -2.25937,3.65603 c -0.4457,1.32039 -0.76727,2.72974 -1.48718,3.90379 a 4.5686177,5.2005172 0 0 1 -3.23252,2.1329 c -1.5914,0.23696 -3.16271,-0.19112 -4.68653,-0.67052 -1.6919,-0.53228 -3.44187,-1.11567 -5.20887,-0.74275 -0.2141,0.0453 -0.26316,-0.33561 -0.0494,-0.38072 3.07428,-0.64886 5.90713,1.44464 8.94809,1.47659 1.41898,0.0149 2.85051,-0.45684 3.76797,-1.75624 0.8023,-1.13624 1.135,-2.58926 1.57612,-3.93062 a 7.9618594,9.0630886 0 0 1 2.09218,-3.6685 12.026672,13.690117 0 0 1 3.48484,-2.38018 29.308602,33.362369 0 0 1 8.91966,-2.37401 30.745163,34.997622 0 0 1 10.39839,1.09605 c 0.20953,0.0642 0.082,0.42102 -0.12616,0.35713 z"
     fill="#ffffff"
     id="path36"
     style="stroke-width:0.295516" />
  <path
     d="m 181.34794,441.09989 a 4.5323776,5.1592647 0 0 1 2.6938,-5.93544 c 0.2015,-0.0932 0.33831,0.25878 0.13654,0.35219 a 4.1968873,4.7773716 0 0 0 -2.49586,5.52702 c 0.0501,0.241 -0.2847,0.29586 -0.33447,0.0563 z"
     fill="#ffffff"
     id="path38"
     style="stroke-width:0.295516" />
  <path
     d="m 173.79455,447.23754 a 8.7357848,9.944058 0 0 0 6.24698,1.39709 c 0.21422,-0.0444 0.26337,0.33645 0.0494,0.38072 a 9.0865534,10.343344 0 0 1 -6.49794,-1.46884 c -0.18353,-0.13388 0.0191,-0.44212 0.20158,-0.30897 z"
     fill="#ffffff"
     id="path40"
     style="stroke-width:0.295516" />
  <path
     d="m 191.12066,439.72105 a 2.5655482,2.920397 0 0 0 1.20171,2.40996 c 0.18493,0.13117 -0.0178,0.43926 -0.20157,0.30898 a 2.8748996,3.272536 0 0 1 -1.3346,-2.66269 0.17472777,0.19889491 0 0 1 0.14252,-0.21848 0.16990277,0.19340256 0 0 1 0.19194,0.16224 z"
     fill="#ffffff"
     id="path42"
     style="stroke-width:0.295516" />
  <path
     d="m 194.99609,372.58921 a 2.7033875,3.0773016 0 0 0 -0.35497,-4.70135 l 4.41287,-24.31101 -4.76099,1.7097 -3.5504,23.519 a 2.7180455,3.0939868 0 0 0 4.25349,3.78366 z"
     fill="#ffb6b6"
     id="path44"
     style="stroke-width:0.295516" />
  <path
     d="m 205.19619,307.60486 -2.94919,-2.53411 c 0,0 -2.60164,-0.20972 -3.0624,5.13097 -0.46079,5.34069 -3.34579,25.83812 -3.34579,25.83812 l -4.51284,23.79275 6.24701,1.56085 4.83358,-25.67658 4.83855,-17.71429 z"
     fill="#e6e6e6"
     id="path46"
     style="stroke-width:0.295516" />
  <path
     d="m 202.9494,351.63001 -14.14679,-12.52129 a 1.0549088,1.2008166 0 0 1 -0.18504,-1.68318 l 9.62535,-14.09123 a 1.0549062,1.2008135 0 0 1 1.47864,-0.21063 l 14.14679,12.52131 a 1.0549062,1.2008135 0 0 1 0.18505,1.68315 l -9.62536,14.09125 a 1.0549062,1.2008135 0 0 1 -1.47864,0.21062 z"
     fill="#3f3d56"
     id="path48"
     style="stroke-width:0.295516" />
  <path
     d="m 202.87165,350.33431 -12.94672,-11.4591 a 0.93664091,1.0661906 0 0 1 -0.16431,-1.49447 l 8.72583,-12.77435 a 0.93664366,1.0661938 0 0 1 1.31288,-0.18702 l 12.94672,11.45911 a 0.93664366,1.0661938 0 0 1 0.1643,1.49446 l -8.72583,12.77435 a 0.93664366,1.0661938 0 0 1 -1.31287,0.18702 z"
     fill="#ffffff"
     id="path50"
     style="stroke-width:0.295516" />
  <path
     d="m 191.62224,338.55024 a 0.23413737,0.26652164 0 0 1 -0.041,-0.37357 l 4.40193,-6.44429 a 0.23387988,0.26622854 0 1 1 0.36926,0.32682 l -4.40193,6.44428 a 0.23415675,0.26654371 0 0 1 -0.32821,0.0468 z"
     fill="#e4e4e4"
     id="path52"
     style="stroke-width:0.295516" />
  <path
     d="m 192.35181,339.19599 a 0.23415953,0.26654687 0 0 1 -0.041,-0.37361 l 4.40193,-6.44428 a 0.23388889,0.26623881 0 1 1 0.36927,0.32685 l -4.40192,6.4443 a 0.23415953,0.26654687 0 0 1 -0.32821,0.0468 z"
     fill="#e4e4e4"
     id="path54"
     style="stroke-width:0.295516" />
  <path
     d="m 195.57518,336.1909 a 0.23415953,0.26654687 0 0 1 -0.041,-0.37362 l 1.90812,-2.79345 a 0.23389328,0.26624379 0 1 1 0.36929,0.32685 l -1.90813,2.79345 a 0.23415953,0.26654687 0 0 1 -0.32821,0.0468 z"
     fill="#e4e4e4"
     id="path56"
     style="stroke-width:0.295516" />
  <path
     d="m 196.55886,341.67271 a 0.23414014,0.2665248 0 0 1 -0.0409,-0.37359 l 6.94925,-10.17352 a 0.23388171,0.26623061 0 1 1 0.36926,0.32682 l -6.94926,10.17352 a 0.23415953,0.26654687 0 0 1 -0.32821,0.0468 z"
     fill="#e4e4e4"
     id="path58"
     style="stroke-width:0.295516" />
  <path
     d="m 197.28843,342.31844 a 0.23415953,0.26654687 0 0 1 -0.0411,-0.3736 l 6.94927,-10.17353 a 0.23388948,0.26623948 0 1 1 0.36927,0.32687 l -6.94927,10.1735 a 0.23415953,0.26654687 0 0 1 -0.32819,0.0468 z"
     fill="#e4e4e4"
     id="path60"
     style="stroke-width:0.295516" />
  <path
     d="m 198.94453,343.78426 a 0.23414014,0.2665248 0 0 1 -0.0409,-0.37359 l 6.94919,-10.17353 a 0.23388804,0.26623782 0 1 1 0.36928,0.32685 l -6.94929,10.17351 a 0.23415953,0.26654687 0 0 1 -0.32821,0.0468 z"
     fill="#e4e4e4"
     id="path62"
     style="stroke-width:0.295516" />
  <path
     d="m 199.6741,344.43 a 0.23415953,0.26654687 0 0 1 -0.041,-0.37362 l 6.94926,-10.17352 a 0.23389189,0.26624221 0 1 1 0.36927,0.32687 l -6.94923,10.1735 a 0.2341623,0.26655002 0 0 1 -0.32821,0.0468 z"
     fill="#e4e4e4"
     id="path64"
     style="stroke-width:0.295516" />
  <path
     d="m 201.33021,345.89585 a 0.23414014,0.2665248 0 0 1 -0.0409,-0.37359 l 6.94927,-10.17353 a 0.2338801,0.2662288 0 1 1 0.36927,0.32683 l -6.94927,10.17351 a 0.23415953,0.26654687 0 0 1 -0.32822,0.0468 z"
     fill="#e4e4e4"
     id="path66"
     style="stroke-width:0.295516" />
  <path
     d="m 202.05978,346.54155 a 0.23415953,0.26654687 0 0 1 -0.041,-0.37363 l 6.94926,-10.17347 a 0.23389086,0.26624103 0 0 1 0.36929,0.32683 l -6.94929,10.17354 a 0.23415953,0.26654687 0 0 1 -0.32822,0.0468 z"
     fill="#e4e4e4"
     id="path68"
     style="stroke-width:0.295516" />
  <ellipse
     cx="190.44531"
     cy="358.24719"
     fill="#ffffff"
     id="circle70"
     rx="0.096023679"
     ry="0.10930502"
     style="stroke-width:0.295516" />
  <path
     d="m 204.43814,283.03649 a 23.1218,26.319848 0 0 1 -1.64974,5.99372 c -4.3412,10.45401 8.02172,7.04654 12.43983,7.04654 4.83053,0 9.45236,2.89145 8.74646,-9.95622 -0.30152,-5.48796 -3.91593,-9.95623 -8.74646,-9.95623 -4.1261,0 -9.92731,2.08762 -10.79009,6.87219 z"
     fill="#2f2e41"
     id="path72"
     style="stroke-width:0.295516" />
  <polygon
     points="431.41,450.772 453.34,450.772 453.34,508.085 438.481,508.085 "
     fill="#ffb6b6"
     id="polygon74"
     transform="matrix(0.27698076,0,0,0.31529082,94.164462,276.1643)" />
  <path
     d="m 221.90316,444.47603 h -2.95148 l -0.52682,-3.17198 -1.34927,3.17198 h -7.82801 a 1.7596587,2.0030426 0 0 1 -0.99991,-3.65138 l 6.25123,-4.91448 v -3.20672 l 6.57518,0.44673 z"
     fill="#2f2e41"
     id="path76"
     style="stroke-width:0.295516" />
  <polygon
     points="489.82,456.429 507.418,443.342 541.617,489.333 529.693,498.2 "
     fill="#ffb6b6"
     id="polygon78"
     transform="matrix(0.27698076,0,0,0.31529082,94.164462,276.1643)" />
  <path
     d="m 250.18015,435.4847 -2.36843,2.00479 -2.08552,-2.1875 0.58004,3.46184 -6.28163,5.31716 a 1.7596587,2.0030426 0 0 1 -2.71645,-2.25086 l 2.44011,-8.18976 -1.681,-2.57326 5.51046,-4.10772 z"
     fill="#2f2e41"
     id="path80"
     style="stroke-width:0.295516" />
  <polygon
     points="461.183,191.129 404.675,191.129 404.675,244.313 475.21,233.327 "
     fill="#ffb6b6"
     id="polygon82"
     transform="matrix(0.27698076,0,0,0.31529082,94.164462,276.1643)" />
  <path
     d="m 224.52252,343.1264 c 0,0 7.80879,7.67957 4.20591,29.57209 l -4.39856,21.45101 11.9839,23.68335 -6.09356,3.78349 -14.76801,-23.36467 -6.75779,-18.0441 -3.57456,-31.62411 z"
     fill="#2f2e41"
     id="path84"
     style="stroke-width:0.295516" />
  <polygon
     points="454.854,458.812 459.521,379.134 426.942,346.301 425.246,372.562 430.21,450.327 "
     fill="#2f2e41"
     id="polygon86"
     transform="matrix(0.27698076,0,0,0.31529082,94.164462,276.1643)" />
  <path
     d="m 210.32057,298.83237 7.55189,0.33537 3.00976,5.68709 6.86685,1.52594 -4.09931,23.60675 0.75384,13.43669 -6.83755,-0.0475 a 19.999892,22.76614 0 0 0 -13.38203,5.72271 v 0 l 0.20454,-17.44187 -2.94104,-13.02015 0.661,-13.65247 5.52408,-0.78602 z"
     fill="#e6e6e6"
     id="path88"
     style="stroke-width:0.295516" />
  <ellipse
     cx="214.50447"
     cy="287.9838"
     fill="#ffb6b6"
     id="circle90"
     rx="7.1074948"
     ry="8.0905552"
     style="stroke-width:0.295516" />
  <path
     d="m 209.67775,279.73652 a 8.1414118,9.267476 0 0 1 12.37783,8.08807 c -3.62164,1.03505 -7.42642,1.82714 -11.28862,0.24756 l -0.91209,-2.54101 -0.53773,2.54289 c -1.17617,0.54725 -2.35539,1.01029 -3.53461,-0.006 a 8.3128435,9.462619 0 0 1 3.89522,-8.33222 z"
     fill="#2f2e41"
     id="path92"
     style="stroke-width:0.295516" />
  <path
     d="m 226.43452,359.73574 0.95812,9.89777 a 1.0613072,1.2081 0 0 0 1.0144,0.85293 h 4.41651 a 1.0613432,1.2081408 0 0 0 1.01453,-0.85293 l 0.79358,-7.58616 a 1.6118397,1.8347783 0 1 0 0.41559,-3.45143 1.0518731,1.1973611 0 0 0 -0.80526,-0.42375 h -6.79294 a 1.0615009,1.2083206 0 0 0 -1.01453,1.56357 z m 8.33582,1.79859 0.48608,-1.79859 a 1.0504052,1.19569 0 0 0 0.016,-0.63951 c 0.0207,-0.002 0.0402,-0.007 0.0614,-0.007 a 1.1508551,1.3100334 0 1 1 0,2.62005 1.1363024,1.293468 0 0 1 -0.56352,-0.17489 z"
     fill="#6c63ff"
     id="path94"
     style="stroke-width:0.295516" />
  <path
     d="m 233.0943,370.49326 a 2.7033792,3.0772921 0 0 1 0.37594,-4.69926 l -4.30431,-24.3362 4.7533,1.73722 3.44539,23.53922 a 2.7180455,3.0939868 0 0 1 -4.27032,3.75902 z"
     fill="#ffb6b6"
     id="path96"
     style="stroke-width:0.295516" />
  <path
     d="m 224.79991,308.91488 2.94919,-2.5341 c 0,0 2.60163,-0.20971 3.06241,5.13095 0.46077,5.3407 3.34578,25.83814 3.34578,25.83814 l 4.51284,23.79276 -6.247,1.56082 -4.83359,-25.67656 -4.83854,-17.71428 z"
     fill="#e6e6e6"
     id="path98"
     style="stroke-width:0.295516" />
  <ellipse
     cx="199.34648"
     cy="329.16791"
     fill="#6c63ff"
     id="circle100"
     rx="1.6694459"
     ry="1.9003526"
     style="stroke-width:0.295516" />
  <polygon
     points="206.082,529.556 187.543,529.557 187.545,578.006 200.106,578.005 "
     fill="#ffb6b6"
     id="polygon102"
     transform="matrix(0.27698076,0,0,0.31529082,94.164462,276.1643)" />
  <path
     d="m 145.22338,457.11115 0.97929,-4e-5 3.82325,-1.76986 2.04914,1.76959 h 2.8e-4 a 4.3666569,4.9706231 0 0 1 4.36641,4.9703 v 0.16152 l -11.21815,4.8e-4 z"
     fill="#2f2e41"
     id="path104"
     style="stroke-width:0.295516" />
  <polygon
     points="264.975,526.914 246.891,522.831 236.221,570.09 248.474,572.857 "
     fill="#ffb6b6"
     id="polygon106"
     transform="matrix(0.27698076,0,0,0.31529082,94.164462,276.1643)" />
  <path
     d="m 158.97772,454.42474 0.95524,0.24548 4.07184,-0.76772 1.65637,2.23996 2.8e-4,7e-5 a 4.3666541,4.9706199 0 0 1 3.29734,5.94305 l -0.0312,0.15756 -10.9427,-2.81244 z"
     fill="#2f2e41"
     id="path108"
     style="stroke-width:0.295516" />
  <path
     d="m 139.74156,379.82884 3.1461,40.12384 c 0,0 -1.1788,24.08849 2.62498,32.56508 h 5.51656 l 2.73135,-34.76494 0.34298,-23.33444 11.8269,19.68641 -7.53291,37.84459 6.78955,0.69093 12.22391,-41.0702 -13.42952,-38.55527 z"
     fill="#2f2e41"
     id="path110"
     style="stroke-width:0.295516" />
  <ellipse
     cx="143.03653"
     cy="306.69662"
     fill="#ffb8b8"
     id="circle112"
     rx="8.1135921"
     ry="9.2358084"
     style="stroke-width:0.295516" />
  <path
     d="m 157.29959,324.73368 -6.65629,-3.25103 -3.24033,-3.91227 -8.09482,1.48607 -2.14772,4.19187 -6.95253,7.35898 8.14569,41.92528 -0.24657,9.15687 c 0,0 5.21346,2.67168 27.8234,-3.4796 0.27112,-0.0737 -0.29643,-0.39681 -0.29643,-0.39681 z"
     fill="#3f3d56"
     id="path114"
     style="stroke-width:0.295516" />
  <path
     d="m 134.59963,311.93722 q -0.0848,-0.13172 -0.16795,-0.26568 c -0.0222,0.0537 -0.04,0.10904 -0.0655,0.1614 z"
     fill="#2f2e41"
     id="path116"
     style="stroke-width:0.295516" />
  <path
     d="m 151.10742,299.94101 a 5.1770475,5.8931009 0 0 0 -2.70883,-2.97888 4.9425885,5.6262133 0 0 0 -3.70567,0.003 c -1.07264,-0.77141 -2.26446,-1.38297 -3.51958,-1.45875 -1.25513,-0.0758 -2.58217,0.45431 -3.35565,1.62109 a 5.4774381,6.2350403 0 0 1 -0.58627,0.867 c -0.62175,0.65543 -1.56663,0.56088 -2.39305,0.42686 q 0.556,0.54243 1.11229,1.08485 -0.67303,0.20013 -1.34618,0.4003 0.78546,0.54224 1.57078,1.0845 c -1.52007,1.03856 -2.21095,3.30537 -2.02846,5.36413 0.17265,1.94914 0.99934,3.73152 1.98758,5.31573 0.39422,-0.94698 0.3093,-2.08012 0.30276,-3.14666 -0.007,-1.12694 0.16838,-2.40662 0.96166,-3.03644 0.53515,-0.42484 1.22327,-0.44382 1.86858,-0.43979 a 85.846785,97.720516 0 0 1 9.7384,0.69205 2.7413948,3.1205657 0 0 1 1.24683,0.41164 c 0.71472,0.55505 0.85398,1.70047 0.92575,2.70538 a 17.220577,19.602409 0 0 0 0.54969,-5.08161 8.2282666,9.3663461 0 0 0 -0.62063,-3.8351 z"
     fill="#2f2e41"
     id="path118"
     style="stroke-width:0.295516" />
  <ellipse
     cx="153.63345"
     cy="393.41931"
     fill="#ffffff"
     id="circle120"
     rx="12.770245"
     ry="14.536537"
     style="stroke-width:0.295516" />
  <path
     d="m 153.63346,378.55979 a 13.124102,14.939337 0 0 0 -1.96099,0.16798 c -0.33201,0.0549 -0.65542,0.12596 -0.9762,0.21318 a 13.04752,14.852162 0 0 0 -5.53086,25.77813 c 0.21853,0.20999 0.43982,0.41348 0.6697,0.6073 a 13.051208,14.856362 0 1 0 7.79835,-26.76661 z m 0,29.07306 a 12.41449,14.131579 0 0 1 -7.37836,-2.75549 c -0.23266,-0.19382 -0.45685,-0.3941 -0.67538,-0.60728 a 12.479091,14.205113 0 0 1 5.56787,-24.77998 c 0.31774,-0.0742 0.6356,-0.13245 0.95916,-0.17766 a 12.353782,14.062472 0 0 1 1.52671,-0.10658 12.486463,14.213506 0 0 1 0,28.42699 z"
     fill="#3f3d56"
     id="path122"
     style="stroke-width:0.295516" />
  <rect
     x="-160.72804"
     y="-390.51202"
     width="14.189162"
     height="1.9382061"
     rx="3.0000002"
     transform="scale(-1)"
     fill="#6c63ff"
     id="rect124"
     ry="3"
     style="stroke-width:0.295516" />
  <rect
     x="-160.72804"
     y="-394.38846"
     width="14.189162"
     height="1.9382061"
     rx="3.0000002"
     transform="scale(-1)"
     fill="#6c63ff"
     id="rect126"
     ry="3"
     style="stroke-width:0.295516" />
  <rect
     x="-160.72804"
     y="-398.26486"
     width="14.189162"
     height="1.9382061"
     rx="3.0000002"
     transform="scale(-1)"
     fill="#6c63ff"
     id="rect128"
     ry="3"
     style="stroke-width:0.295516" />
  <polygon
     points="711.083,525.639 730.522,525.64 730.52,576.442 717.349,576.441 "
     fill="#9e616a"
     id="polygon130"
     transform="matrix(0.27698076,0,0,0.31529082,94.164462,276.1643)" />
  <polygon
     points="648.773,525.639 668.212,525.64 668.209,576.442 655.039,576.441 "
     fill="#9e616a"
     id="polygon132"
     transform="matrix(0.27698076,0,0,0.31529082,94.164462,276.1643)" />
  <path
     d="m 279.37405,462.24312 -11.21817,-4.6e-4 v -0.16152 a 4.3666569,4.9706231 0 0 1 4.36642,-4.97028 h 2.8e-4 l 2.04915,-1.76961 3.82325,1.76986 0.97927,7e-5 z"
     fill="#2f2e41"
     id="path134"
     style="stroke-width:0.295516" />
  <path
     d="m 297.10081,462.24312 -11.21816,-4.6e-4 v -0.16152 a 4.3666569,4.9706231 0 0 1 4.36643,-4.97028 h 2.6e-4 l 2.04915,-1.76961 3.82326,1.76986 0.97928,7e-5 z"
     fill="#2f2e41"
     id="path136"
     style="stroke-width:0.295516" />
  <path
     d="m 275.66713,363.11482 -5.54425,38.42892 1.50885,5.7266 -1.97993,4.05575 2.90756,35.61846 -1.18025,2.9578 3.2976,2.31502 h 6.71013 l 0.35615,-32.24565 1.65751,-4.73436 v -2.60922 l 3.37424,-19.66267 0.62126,27.53631 0.98152,4.74177 -0.82447,3.37616 1.07725,2.36531 2.86154,21.93497 h 7.52427 l -0.58193,-5.10313 v 0 a 3.313277,3.7715467 0 0 0 1.7396,-4.17365 l -0.43142,-2.23672 0.98185,-6.61366 1.78796,-36.89647 -0.50409,-29.77081 -8.80202,-7.66173 z"
     fill="#2f2e41"
     id="path138"
     style="stroke-width:0.295516" />
  <ellipse
     id="ab6171fa-7d69-4734-b81c-8dff60f9761b"
     data-name="Ellipse 219"
     cx="288.3775"
     cy="305.80991"
     fill="#9e616a"
     rx="6.9906588"
     ry="7.9575596"
     style="stroke-width:0.295516" />
  <path
     d="m 273.10376,378.36455 a 2.992248,3.4061153 0 0 0 -0.47915,-5.19433 l 2.71843,-11.70194 -5.23736,2.00529 -1.77851,10.80494 a 3.0084597,3.4245693 0 0 0 4.77657,4.08604 z"
     fill="#9e616a"
     id="path141"
     style="stroke-width:0.295516" />
  <path
     id="bc44dde2-a388-4b93-9ca4-c442728432a9-58"
     data-name="Path 1101"
     d="m 275.96459,322.18136 -1.1242,-0.26557 -0.95874,0.60429 c 0,0 -2.67809,4.06467 -2.67809,7.79059 0,3.72594 -3.27321,39.63045 -3.27321,39.63045 l 5.95129,3.0485 4.76103,-28.11389 z"
     fill="#e6e6e6"
     style="stroke-width:0.295516" />
  <path
     id="bf427902-b9bf-4946-b5d7-5c1c7e04535e-59"
     data-name="Path 1104"
     d="m 294.49944,299.97553 c 0,0 1.8284,-3.97877 -2.19412,-4.34048 0,0 -3.42922,-3.541 -6.92456,-0.64735 0,0 -1.90653,0 -2.94911,2.45589 0,0 -1.49949,-0.64735 -1.829,1.08512 0,0 -1.09722,3.61708 0,6.87244 1.09721,3.25536 1.46168,3.61707 1.46168,3.61707 0,0 -1.80297,-6.82506 2.58559,-7.18676 4.38856,-0.36171 9.29947,-3.4836 9.66521,0.49517 0.36574,3.97878 0.91612,4.95913 0.91612,4.95913 0,0 3.4737,-5.68254 -0.73181,-7.31023 z"
     fill="#2f2e41"
     style="stroke-width:0.295516" />
  <path
     d="m 320.03595,411.32609 a 2.1392471,2.4351329 0 0 1 -1.43008,-0.62104 l -21.15603,-21.437 a 2.1574585,2.4558633 0 0 1 -0.17676,-3.46328 l 13.55271,-17.33083 a 2.157356,2.4557467 0 0 1 3.04259,-0.20136 l 21.15618,21.43731 a 2.1548272,2.4528681 0 0 1 0.17676,3.46297 l -13.55285,17.33084 a 2.1400337,2.4360285 0 0 1 -1.48471,0.81808 c -0.0428,0.003 -0.0853,0.006 -0.12781,0.006 z"
     fill="#ffffff"
     id="path145"
     style="stroke-width:0.295516" />
  <path
     d="m 320.03569,411.48374 a 2.2766019,2.5914856 0 0 1 -1.52191,-0.66076 l -21.15603,-21.437 a 2.2964973,2.6141328 0 0 1 -0.18813,-3.68619 l 13.55273,-17.33084 a 2.2967244,2.6143915 0 0 1 3.23815,-0.2143 l 21.15617,21.43729 a 2.293819,2.6110841 0 0 1 0.18811,3.6859 l -13.55285,17.33085 a 2.2791998,2.5944431 0 0 1 -1.58006,0.87074 c -0.0456,0.003 -0.0909,0.006 -0.13618,0.006 z m -7.59925,-43.35819 a 1.7349797,1.9749501 0 0 0 -1.30024,0.66276 l -13.5527,17.33084 a 1.7415137,1.982388 0 0 0 0.14267,2.79574 l 21.15602,21.437 a 1.7391621,1.979711 0 0 0 2.4559,-0.16258 l 13.55286,-17.33082 a 1.7394584,1.9800484 0 0 0 -0.14269,-2.79544 L 313.5921,368.62573 a 1.7324952,1.9721221 0 0 0 -1.15568,-0.50018 z"
     fill="#3f3d56"
     id="path147"
     style="stroke-width:0.295516" />
  <path
     d="m 327.70757,394.91281 a 0.9285835,1.0570189 0 0 1 -0.61956,-0.26821 l -16.60667,-16.82741 a 0.93250284,1.0614801 0 1 1 1.24005,-1.58568 l 16.6068,16.82743 a 0.93219261,1.061127 0 0 1 -0.62062,1.85387 z"
     fill="#6c63ff"
     id="path149"
     style="stroke-width:0.295516" />
  <path
     d="m 324.53999,398.96325 a 0.92859458,1.0570315 0 0 1 -0.61955,-0.2682 l -16.60666,-16.82741 a 0.93240235,1.0613658 0 1 1 1.24006,-1.58538 l 16.6068,16.82741 a 0.9319932,1.0609001 0 0 1 -0.62063,1.85358 z"
     fill="#6c63ff"
     id="path151"
     style="stroke-width:0.295516" />
  <path
     d="m 321.37243,403.0143 a 0.92788554,1.0562241 0 0 1 -0.61969,-0.26848 l -16.60682,-16.82713 a 0.93255048,1.0615345 0 1 1 1.24021,-1.58568 l 16.60666,16.82742 a 0.93213161,1.0610577 0 0 1 -0.62037,1.85387 z"
     fill="#6c63ff"
     id="path153"
     style="stroke-width:0.295516" />
  <path
     d="m 302.38125,379.05521 a 2.9922508,3.4061184 0 0 1 1.63702,-4.87912 l 0.018,-12.10416 4.60781,3.47164 -0.7235,10.96205 a 3.0084624,3.4245724 0 0 1 -5.53929,2.54959 z"
     fill="#9e616a"
     id="path155"
     style="stroke-width:0.295516" />
  <path
     id="f348f81f-b961-4ae4-bc6b-758f6acfb12a-60"
     data-name="Path 1100"
     d="m 302.80718,325.49829 2.05855,-2.25863 1.51221,1.24243 c 0,0 1.48782,2.03233 2.67807,8.12933 1.19028,6.097 0,39.63046 0,39.63046 l -6.5464,-1.01617 0.89269,-17.61353 -2.67809,-14.90377 z"
     fill="#e6e6e6"
     style="stroke-width:0.295516" />
  <path
     d="m 305.84686,323.79061 -6.93543,-3.77108 -4.70866,-4.97152 -8.58642,-0.0731 -2.7698,4.09879 -7.31232,2.82747 1.21874,28.70161 -0.83095,2.20704 c 0,0 0.57891,0.59531 0.84342,0.92823 0.2645,0.33293 -0.36549,3.12028 -0.36549,3.12028 l -0.3552,3.03247 0.98519,0.80129 -1.28075,1.72214 -0.31798,2.71455 c 0,0 22.35652,-6.32529 26.58079,4.15314 0.2232,0.55361 -0.32642,-4.85702 -0.32642,-4.85702 l -0.54959,-3.96102 0.54524,-3.55525 0.83094,-0.94588 -1.39364,-1.58637 0.89347,-7.52727 z"
     fill="#3f3d56"
     id="path158"
     style="stroke-width:0.295516" />
  <path
     d="m 148.56618,387.41975 a 3.2128382,3.657216 0 0 0 -2.35533,-4.92546 l -1.54064,-12.87765 -4.46698,4.44483 2.14784,11.54737 a 3.2302492,3.6770352 0 0 0 6.21511,1.81089 z"
     fill="#ffb8b8"
     id="path160"
     style="stroke-width:0.295516" />
  <path
     id="e1bf2fad-858c-4bea-9733-320cc40b59f5-61"
     data-name="Path 1101"
     d="m 131.06511,330.37181 -1.21078,0.264 -0.73187,1.04884 c 0,0 -1.18399,5.2863 0.16475,8.98059 1.34875,3.69431 11.10033,40.8292 11.10033,40.8292 l 7.00427,0.23116 -5.45629,-30.10829 z"
     fill="#3f3d56"
     style="stroke-width:0.295516" />
  <path
     d="m 158.67788,385.5307 a 3.2128299,3.6572065 0 0 1 0.57214,-5.56995 l -2.78855,-12.60291 5.60079,2.2284 1.78938,11.62629 a 3.2302492,3.6770352 0 0 1 -5.17376,4.31817 z"
     fill="#ffb8b8"
     id="path163"
     style="stroke-width:0.295516" />
  <path
     id="ff35f29e-9865-4218-824f-c5cf71e1b056-62"
     data-name="Path 1101"
     d="m 156.23082,325.16861 1.20994,-0.26891 1.02264,0.66259 c 0,0 2.83014,4.40258 2.78872,8.40292 -0.0414,4.00034 3.07379,42.59623 3.07379,42.59623 l -6.42347,3.18732 -4.79918,-30.25298 z"
     fill="#3f3d56"
     style="stroke-width:0.295516" />
  <text
     xml:space="preserve"
     style="font-size:287.061px;font-family:'Ink Free';-inkscape-font-specification:'Ink Free, Normal';text-align:center;text-anchor:middle;fill:#722be3;fill-opacity:1;stroke:none;stroke-width:2.48129;stroke-linecap:round;stroke-miterlimit:6.6;paint-order:markers fill stroke"
     x="80.639885"
     y="213.69788"
     id="text2974"
     transform="matrix(1.0266621,-0.11394189,0.14887526,0.95750771,0,0)"><tspan
       sodipodi:role="line"
       id="tspan2972"
       x="80.639885"
       y="213.69788"
       style="font-style:normal;font-variant:normal;font-weight:normal;font-stretch:normal;font-size:82.3241px;font-family:'Ink Free';-inkscape-font-specification:'Ink Free, Normal';font-variant-ligatures:normal;font-variant-caps:normal;font-variant-numeric:normal;font-variant-east-asian:normal;stroke-width:2.48129">BUY,</tspan></text>
  <text
     xml:space="preserve"
     style="font-size:201.385px;font-family:'Ink Free';-inkscape-font-specification:'Ink Free, Normal';text-align:center;text-anchor:middle;fill:#722be3;fill-opacity:1;stroke:none;stroke-width:1.74073;stroke-linecap:round;stroke-miterlimit:6.6;paint-order:markers fill stroke"
     x="81.515198"
     y="249.33308"
     id="text2974-9"
     transform="matrix(0.88913577,-0.13156575,0.1289327,1.1056094,0,0)"><tspan
       sodipodi:role="line"
       id="tspan2972-0"
       x="81.515198"
       y="249.33308"
       style="font-style:normal;font-variant:normal;font-weight:normal;font-stretch:normal;font-size:57.7535px;font-family:'Ink Free';-inkscape-font-specification:'Ink Free, Normal';font-variant-ligatures:normal;font-variant-caps:normal;font-variant-numeric:normal;font-variant-east-asian:normal;stroke-width:1.74073">SELL,</tspan></text>
  <text
     xml:space="preserve"
     style="font-size:160.391px;font-family:'Ink Free';-inkscape-font-specification:'Ink Free, Normal';text-align:center;text-anchor:middle;fill:#722be3;fill-opacity:1;stroke:none;stroke-width:1.38639;stroke-linecap:round;stroke-miterlimit:6.6;paint-order:markers fill stroke"
     x="404.3432"
     y="567.99103"
     id="text2974-8"
     transform="scale(1.1545238,0.86615794)"><tspan
       sodipodi:role="line"
       id="tspan2972-24"
       x="404.3432"
       y="567.99103"
       style="font-style:normal;font-variant:normal;font-weight:normal;font-stretch:normal;font-size:45.9973px;font-family:'Ink Free';-inkscape-font-specification:'Ink Free, Normal';font-variant-ligatures:normal;font-variant-caps:normal;font-variant-numeric:normal;font-variant-east-asian:normal;fill:#fbfafe;fill-opacity:1;stroke-width:1.38639">AUCTION</tspan></text>
  <text
     xml:space="preserve"
     style="font-size:160.391px;font-family:'Ink Free';-inkscape-font-specification:'Ink Free, Normal';text-align:center;text-anchor:middle;fill:#722be3;fill-opacity:1;stroke:none;stroke-width:1.38639;stroke-linecap:round;stroke-miterlimit:6.6;paint-order:markers fill stroke"
     x="383.63483"
     y="630.37067"
     id="text2974-8-8"
     transform="scale(1.1545238,0.86615797)"><tspan
       sodipodi:role="line"
       id="tspan2972-24-7"
       x="383.63483"
       y="630.37067"
       style="font-style:normal;font-variant:normal;font-weight:normal;font-stretch:normal;font-size:45.9973px;font-family:'Ink Free';-inkscape-font-specification:'Ink Free, Normal';font-variant-ligatures:normal;font-variant-caps:normal;font-variant-numeric:normal;font-variant-east-asian:normal;fill:#fbfafe;fill-opacity:1;stroke-width:1.38639">MANY ITEMS</tspan></text>
  <text
     xml:space="preserve"
     style="font-size:160.391px;font-family:'Ink Free';-inkscape-font-specification:'Ink Free, Normal';text-align:center;text-anchor:middle;fill:#722be3;fill-opacity:1;stroke:none;stroke-width:1.38639;stroke-linecap:round;stroke-miterlimit:6.6;paint-order:markers fill stroke"
     x="362.61389"
     y="497.91568"
     id="text2974-8-0"
     transform="scale(1.1545238,0.86615797)"><tspan
       sodipodi:role="line"
       id="tspan2972-24-6"
       x="362.61389"
       y="497.91568"
       style="font-style:normal;font-variant:normal;font-weight:normal;font-stretch:normal;font-size:45.9973px;font-family:'Ink Free';-inkscape-font-specification:'Ink Free, Normal';font-variant-ligatures:normal;font-variant-caps:normal;font-variant-numeric:normal;font-variant-east-asian:normal;fill:#fbfafe;fill-opacity:1;stroke-width:1.38639">&amp;</tspan></text>
  <path
     style="fill:#fbfafe;fill-opacity:1;stroke:#722be3;stroke-width:0.926096;stroke-linecap:round;stroke-miterlimit:6.6;stroke-opacity:1;paint-order:markers fill stroke"
     d="m 365.25595,250.21601 5.96403,-10.98334 32.99116,-29.62638 5.37474,3.85811 -32.84782,30.43378 z"
     id="path3236"
     sodipodi:nodetypes="cccccc" />
  <path
     style="fill:#fbfafe;fill-opacity:1;stroke:#722be3;stroke-width:0.926096;stroke-linecap:round;stroke-miterlimit:6.6;stroke-opacity:1;paint-order:markers fill stroke"
     d="m 371.04569,239.41129 2.0203,-0.003 0.2536,1.1369 1.33279,-0.0811 0.50784,1.69297 1.40087,-0.28136 0.0407,1.98037 v 0"
     id="path3499" />
  <path
     style="fill:#722be3;fill-opacity:1;stroke:#722be3;stroke-width:0.926096;stroke-linecap:round;stroke-miterlimit:6.6;stroke-opacity:1;paint-order:markers fill stroke"
     d="m 404.42403,209.403 4.57042,-4.02567 2.61491,-0.44774 2.0871,1.2491 0.71056,2.83481 -4.43477,4.20608"
     id="path3501"
     sodipodi:nodetypes="cccccc" />
</svg>
